<svg width="603" height="183" viewBox="0 0 603 183" fill="none" xmlns="http://www.w3.org/2000/svg">
<g filter="url(#filter0_d)">
<path d="M4.5 142.5H599" stroke="black" stroke-opacity="0.2"/>
</g>
<g filter="url(#filter1_d)">
<path d="M49.7449 168.666L49.7329 163.098L46.9729 167.706H46.2769L43.5169 163.17V168.666H42.0289V160.266H43.3129L46.6489 165.834L49.9249 160.266H51.2089L51.2209 168.666H49.7449ZM56.2258 168.75C55.5778 168.75 54.9938 168.61 54.4738 168.33C53.9538 168.05 53.5458 167.662 53.2498 167.166C52.9618 166.662 52.8178 166.094 52.8178 165.462C52.8178 164.83 52.9618 164.266 53.2498 163.77C53.5458 163.274 53.9538 162.886 54.4738 162.606C54.9938 162.326 55.5778 162.186 56.2258 162.186C56.8818 162.186 57.4698 162.326 57.9898 162.606C58.5098 162.886 58.9138 163.274 59.2018 163.77C59.4978 164.266 59.6458 164.83 59.6458 165.462C59.6458 166.094 59.4978 166.662 59.2018 167.166C58.9138 167.662 58.5098 168.05 57.9898 168.33C57.4698 168.61 56.8818 168.75 56.2258 168.75ZM56.2258 167.466C56.7778 167.466 57.2338 167.282 57.5938 166.914C57.9538 166.546 58.1338 166.062 58.1338 165.462C58.1338 164.862 57.9538 164.378 57.5938 164.01C57.2338 163.642 56.7778 163.458 56.2258 163.458C55.6738 163.458 55.2178 163.642 54.8578 164.01C54.5058 164.378 54.3298 164.862 54.3298 165.462C54.3298 166.062 54.5058 166.546 54.8578 166.914C55.2178 167.282 55.6738 167.466 56.2258 167.466ZM64.7162 162.186C65.5242 162.186 66.1722 162.422 66.6602 162.894C67.1482 163.366 67.3922 164.066 67.3922 164.994V168.666H65.8922V165.186C65.8922 164.626 65.7602 164.206 65.4962 163.926C65.2322 163.638 64.8562 163.494 64.3682 163.494C63.8162 163.494 63.3802 163.662 63.0602 163.998C62.7402 164.326 62.5802 164.802 62.5802 165.426V168.666H61.0802V162.258H62.5082V163.086C62.7562 162.79 63.0682 162.566 63.4442 162.414C63.8202 162.262 64.2442 162.186 64.7162 162.186ZM75.6296 159.762V168.666H74.1896V167.838C73.9416 168.142 73.6336 168.37 73.2656 168.522C72.9056 168.674 72.5056 168.75 72.0656 168.75C71.4496 168.75 70.8936 168.614 70.3976 168.342C69.9096 168.07 69.5256 167.686 69.2456 167.19C68.9656 166.686 68.8256 166.11 68.8256 165.462C68.8256 164.814 68.9656 164.242 69.2456 163.746C69.5256 163.25 69.9096 162.866 70.3976 162.594C70.8936 162.322 71.4496 162.186 72.0656 162.186C72.4896 162.186 72.8776 162.258 73.2296 162.402C73.5816 162.546 73.8816 162.762 74.1296 163.05V159.762H75.6296ZM72.2456 167.466C72.6056 167.466 72.9296 167.386 73.2176 167.226C73.5056 167.058 73.7336 166.822 73.9016 166.518C74.0696 166.214 74.1536 165.862 74.1536 165.462C74.1536 165.062 74.0696 164.71 73.9016 164.406C73.7336 164.102 73.5056 163.87 73.2176 163.71C72.9296 163.542 72.6056 163.458 72.2456 163.458C71.8856 163.458 71.5616 163.542 71.2736 163.71C70.9856 163.87 70.7576 164.102 70.5896 164.406C70.4216 164.71 70.3376 165.062 70.3376 165.462C70.3376 165.862 70.4216 166.214 70.5896 166.518C70.7576 166.822 70.9856 167.058 71.2736 167.226C71.5616 167.386 71.8856 167.466 72.2456 167.466ZM80.0399 162.186C80.9839 162.186 81.7039 162.414 82.1999 162.87C82.7039 163.318 82.9559 163.998 82.9559 164.91V168.666H81.5399V167.886C81.3559 168.166 81.0919 168.382 80.7479 168.534C80.4119 168.678 80.0039 168.75 79.5239 168.75C79.0439 168.75 78.6239 168.67 78.2639 168.51C77.9039 168.342 77.6239 168.114 77.4239 167.826C77.2319 167.53 77.1359 167.198 77.1359 166.83C77.1359 166.254 77.3479 165.794 77.7719 165.45C78.2039 165.098 78.8799 164.922 79.7999 164.922H81.4559V164.826C81.4559 164.378 81.3199 164.034 81.0479 163.794C80.7839 163.554 80.3879 163.434 79.8599 163.434C79.4999 163.434 79.1439 163.49 78.7919 163.602C78.4479 163.714 78.1559 163.87 77.9159 164.07L77.3279 162.978C77.6639 162.722 78.0679 162.526 78.5399 162.39C79.0119 162.254 79.5119 162.186 80.0399 162.186ZM79.8359 167.658C80.2119 167.658 80.5439 167.574 80.8319 167.406C81.1279 167.23 81.3359 166.982 81.4559 166.662V165.918H79.9079C79.0439 165.918 78.6119 166.202 78.6119 166.77C78.6119 167.042 78.7199 167.258 78.9359 167.418C79.1519 167.578 79.4519 167.658 79.8359 167.658ZM90.7638 162.258L87.7638 169.182C87.4838 169.878 87.1438 170.366 86.7438 170.646C86.3438 170.934 85.8598 171.078 85.2918 171.078C84.9718 171.078 84.6558 171.026 84.3438 170.922C84.0318 170.818 83.7758 170.674 83.5758 170.49L84.1758 169.386C84.3198 169.522 84.4878 169.63 84.6798 169.71C84.8798 169.79 85.0798 169.83 85.2798 169.83C85.5438 169.83 85.7598 169.762 85.9278 169.626C86.1038 169.49 86.2638 169.262 86.4078 168.942L86.5158 168.69L83.7198 162.258H85.2798L87.2958 166.998L89.3238 162.258H90.7638Z" fill="#A9AFBE"/>
</g>
<g filter="url(#filter2_d)">
<path d="M162.03 161.586H159.246V160.266H166.374V161.586H163.59V168.666H162.03V161.586ZM173.452 162.258V168.666H172.024V167.85C171.784 168.138 171.484 168.362 171.124 168.522C170.764 168.674 170.376 168.75 169.96 168.75C169.104 168.75 168.428 168.514 167.932 168.042C167.444 167.562 167.2 166.854 167.2 165.918V162.258H168.7V165.714C168.7 166.29 168.828 166.722 169.084 167.01C169.348 167.29 169.72 167.43 170.2 167.43C170.736 167.43 171.16 167.266 171.472 166.938C171.792 166.602 171.952 166.122 171.952 165.498V162.258H173.452ZM181.44 165.498C181.44 165.602 181.432 165.75 181.416 165.942H176.388C176.476 166.414 176.704 166.79 177.072 167.07C177.448 167.342 177.912 167.478 178.464 167.478C179.168 167.478 179.748 167.246 180.204 166.782L181.008 167.706C180.72 168.05 180.356 168.31 179.916 168.486C179.476 168.662 178.98 168.75 178.428 168.75C177.724 168.75 177.104 168.61 176.568 168.33C176.032 168.05 175.616 167.662 175.32 167.166C175.032 166.662 174.888 166.094 174.888 165.462C174.888 164.838 175.028 164.278 175.308 163.782C175.596 163.278 175.992 162.886 176.496 162.606C177 162.326 177.568 162.186 178.2 162.186C178.824 162.186 179.38 162.326 179.868 162.606C180.364 162.878 180.748 163.266 181.02 163.77C181.3 164.266 181.44 164.842 181.44 165.498ZM178.2 163.386C177.72 163.386 177.312 163.53 176.976 163.818C176.648 164.098 176.448 164.474 176.376 164.946H180.012C179.948 164.482 179.752 164.106 179.424 163.818C179.096 163.53 178.688 163.386 178.2 163.386ZM184.861 168.75C184.341 168.75 183.833 168.682 183.337 168.546C182.841 168.41 182.445 168.238 182.149 168.03L182.725 166.89C183.013 167.082 183.357 167.238 183.757 167.358C184.165 167.47 184.565 167.526 184.957 167.526C185.853 167.526 186.301 167.29 186.301 166.818C186.301 166.594 186.185 166.438 185.953 166.35C185.729 166.262 185.365 166.178 184.861 166.098C184.333 166.018 183.901 165.926 183.565 165.822C183.237 165.718 182.949 165.538 182.701 165.282C182.461 165.018 182.341 164.654 182.341 164.19C182.341 163.582 182.593 163.098 183.097 162.738C183.609 162.37 184.297 162.186 185.161 162.186C185.601 162.186 186.041 162.238 186.481 162.342C186.921 162.438 187.281 162.57 187.561 162.738L186.985 163.878C186.441 163.558 185.829 163.398 185.149 163.398C184.709 163.398 184.373 163.466 184.141 163.602C183.917 163.73 183.805 163.902 183.805 164.118C183.805 164.358 183.925 164.53 184.165 164.634C184.413 164.73 184.793 164.822 185.305 164.91C185.817 164.99 186.237 165.082 186.565 165.186C186.893 165.29 187.173 165.466 187.405 165.714C187.645 165.962 187.765 166.314 187.765 166.77C187.765 167.37 187.505 167.85 186.985 168.21C186.465 168.57 185.757 168.75 184.861 168.75ZM195.333 159.762V168.666H193.893V167.838C193.645 168.142 193.337 168.37 192.969 168.522C192.609 168.674 192.209 168.75 191.769 168.75C191.153 168.75 190.597 168.614 190.101 168.342C189.613 168.07 189.229 167.686 188.949 167.19C188.669 166.686 188.529 166.11 188.529 165.462C188.529 164.814 188.669 164.242 188.949 163.746C189.229 163.25 189.613 162.866 190.101 162.594C190.597 162.322 191.153 162.186 191.769 162.186C192.193 162.186 192.581 162.258 192.933 162.402C193.285 162.546 193.585 162.762 193.833 163.05V159.762H195.333ZM191.949 167.466C192.309 167.466 192.633 167.386 192.921 167.226C193.209 167.058 193.437 166.822 193.605 166.518C193.773 166.214 193.857 165.862 193.857 165.462C193.857 165.062 193.773 164.71 193.605 164.406C193.437 164.102 193.209 163.87 192.921 163.71C192.633 163.542 192.309 163.458 191.949 163.458C191.589 163.458 191.265 163.542 190.977 163.71C190.689 163.87 190.461 164.102 190.293 164.406C190.125 164.71 190.041 165.062 190.041 165.462C190.041 165.862 190.125 166.214 190.293 166.518C190.461 166.822 190.689 167.058 190.977 167.226C191.265 167.386 191.589 167.466 191.949 167.466ZM199.743 162.186C200.687 162.186 201.407 162.414 201.903 162.87C202.407 163.318 202.659 163.998 202.659 164.91V168.666H201.243V167.886C201.059 168.166 200.795 168.382 200.451 168.534C200.115 168.678 199.707 168.75 199.227 168.75C198.747 168.75 198.327 168.67 197.967 168.51C197.607 168.342 197.327 168.114 197.127 167.826C196.935 167.53 196.839 167.198 196.839 166.83C196.839 166.254 197.051 165.794 197.475 165.45C197.907 165.098 198.583 164.922 199.503 164.922H201.159V164.826C201.159 164.378 201.023 164.034 200.751 163.794C200.487 163.554 200.091 163.434 199.563 163.434C199.203 163.434 198.847 163.49 198.495 163.602C198.151 163.714 197.859 163.87 197.619 164.07L197.031 162.978C197.367 162.722 197.771 162.526 198.243 162.39C198.715 162.254 199.215 162.186 199.743 162.186ZM199.539 167.658C199.915 167.658 200.247 167.574 200.535 167.406C200.831 167.23 201.039 166.982 201.159 166.662V165.918H199.611C198.747 165.918 198.315 166.202 198.315 166.77C198.315 167.042 198.423 167.258 198.639 167.418C198.855 167.578 199.155 167.658 199.539 167.658ZM210.467 162.258L207.467 169.182C207.187 169.878 206.847 170.366 206.447 170.646C206.047 170.934 205.563 171.078 204.995 171.078C204.675 171.078 204.359 171.026 204.047 170.922C203.735 170.818 203.479 170.674 203.279 170.49L203.879 169.386C204.023 169.522 204.191 169.63 204.383 169.71C204.583 169.79 204.783 169.83 204.983 169.83C205.247 169.83 205.463 169.762 205.631 169.626C205.807 169.49 205.967 169.262 206.111 168.942L206.219 168.69L203.423 162.258H204.983L206.999 166.998L209.027 162.258H210.467Z" fill="#A9AFBE"/>
</g>
<g filter="url(#filter3_d)">
<path d="M278.697 160.266L275.913 168.666H274.257L272.181 162.45L270.069 168.666H268.401L265.617 160.266H267.237L269.325 166.65L271.497 160.266H272.937L275.061 166.686L277.209 160.266H278.697ZM285.368 165.498C285.368 165.602 285.36 165.75 285.344 165.942H280.316C280.404 166.414 280.632 166.79 281 167.07C281.376 167.342 281.84 167.478 282.392 167.478C283.096 167.478 283.676 167.246 284.132 166.782L284.936 167.706C284.648 168.05 284.284 168.31 283.844 168.486C283.404 168.662 282.908 168.75 282.356 168.75C281.652 168.75 281.032 168.61 280.496 168.33C279.96 168.05 279.544 167.662 279.248 167.166C278.96 166.662 278.816 166.094 278.816 165.462C278.816 164.838 278.956 164.278 279.236 163.782C279.524 163.278 279.92 162.886 280.424 162.606C280.928 162.326 281.496 162.186 282.128 162.186C282.752 162.186 283.308 162.326 283.796 162.606C284.292 162.878 284.676 163.266 284.948 163.77C285.228 164.266 285.368 164.842 285.368 165.498ZM282.128 163.386C281.648 163.386 281.24 163.53 280.904 163.818C280.576 164.098 280.376 164.474 280.304 164.946H283.94C283.876 164.482 283.68 164.106 283.352 163.818C283.024 163.53 282.616 163.386 282.128 163.386ZM293.085 159.762V168.666H291.645V167.838C291.397 168.142 291.089 168.37 290.721 168.522C290.361 168.674 289.961 168.75 289.521 168.75C288.905 168.75 288.349 168.614 287.853 168.342C287.365 168.07 286.981 167.686 286.701 167.19C286.421 166.686 286.281 166.11 286.281 165.462C286.281 164.814 286.421 164.242 286.701 163.746C286.981 163.25 287.365 162.866 287.853 162.594C288.349 162.322 288.905 162.186 289.521 162.186C289.945 162.186 290.333 162.258 290.685 162.402C291.037 162.546 291.337 162.762 291.585 163.05V159.762H293.085ZM289.701 167.466C290.061 167.466 290.385 167.386 290.673 167.226C290.961 167.058 291.189 166.822 291.357 166.518C291.525 166.214 291.609 165.862 291.609 165.462C291.609 165.062 291.525 164.71 291.357 164.406C291.189 164.102 290.961 163.87 290.673 163.71C290.385 163.542 290.061 163.458 289.701 163.458C289.341 163.458 289.017 163.542 288.729 163.71C288.441 163.87 288.213 164.102 288.045 164.406C287.877 164.71 287.793 165.062 287.793 165.462C287.793 165.862 287.877 166.214 288.045 166.518C288.213 166.822 288.441 167.058 288.729 167.226C289.017 167.386 289.341 167.466 289.701 167.466ZM298.683 162.186C299.491 162.186 300.139 162.422 300.627 162.894C301.115 163.366 301.359 164.066 301.359 164.994V168.666H299.859V165.186C299.859 164.626 299.727 164.206 299.463 163.926C299.199 163.638 298.823 163.494 298.335 163.494C297.783 163.494 297.347 163.662 297.027 163.998C296.707 164.326 296.547 164.802 296.547 165.426V168.666H295.047V162.258H296.475V163.086C296.723 162.79 297.035 162.566 297.411 162.414C297.787 162.262 298.211 162.186 298.683 162.186ZM309.344 165.498C309.344 165.602 309.336 165.75 309.32 165.942H304.292C304.38 166.414 304.608 166.79 304.976 167.07C305.352 167.342 305.816 167.478 306.368 167.478C307.072 167.478 307.652 167.246 308.108 166.782L308.912 167.706C308.624 168.05 308.26 168.31 307.82 168.486C307.38 168.662 306.884 168.75 306.332 168.75C305.628 168.75 305.008 168.61 304.472 168.33C303.936 168.05 303.52 167.662 303.224 167.166C302.936 166.662 302.792 166.094 302.792 165.462C302.792 164.838 302.932 164.278 303.212 163.782C303.5 163.278 303.896 162.886 304.4 162.606C304.904 162.326 305.472 162.186 306.104 162.186C306.728 162.186 307.284 162.326 307.772 162.606C308.268 162.878 308.652 163.266 308.924 163.77C309.204 164.266 309.344 164.842 309.344 165.498ZM306.104 163.386C305.624 163.386 305.216 163.53 304.88 163.818C304.552 164.098 304.352 164.474 304.28 164.946H307.916C307.852 164.482 307.656 164.106 307.328 163.818C307 163.53 306.592 163.386 306.104 163.386ZM312.765 168.75C312.245 168.75 311.737 168.682 311.241 168.546C310.745 168.41 310.349 168.238 310.053 168.03L310.629 166.89C310.917 167.082 311.261 167.238 311.661 167.358C312.069 167.47 312.469 167.526 312.861 167.526C313.757 167.526 314.205 167.29 314.205 166.818C314.205 166.594 314.089 166.438 313.857 166.35C313.633 166.262 313.269 166.178 312.765 166.098C312.237 166.018 311.805 165.926 311.469 165.822C311.141 165.718 310.853 165.538 310.605 165.282C310.365 165.018 310.245 164.654 310.245 164.19C310.245 163.582 310.497 163.098 311.001 162.738C311.513 162.37 312.201 162.186 313.065 162.186C313.505 162.186 313.945 162.238 314.385 162.342C314.825 162.438 315.185 162.57 315.465 162.738L314.889 163.878C314.345 163.558 313.733 163.398 313.053 163.398C312.613 163.398 312.277 163.466 312.045 163.602C311.821 163.73 311.709 163.902 311.709 164.118C311.709 164.358 311.829 164.53 312.069 164.634C312.317 164.73 312.697 164.822 313.209 164.91C313.721 164.99 314.141 165.082 314.469 165.186C314.797 165.29 315.077 165.466 315.309 165.714C315.549 165.962 315.669 166.314 315.669 166.77C315.669 167.37 315.409 167.85 314.889 168.21C314.369 168.57 313.661 168.75 312.765 168.75ZM323.237 159.762V168.666H321.797V167.838C321.549 168.142 321.241 168.37 320.873 168.522C320.513 168.674 320.113 168.75 319.673 168.75C319.057 168.75 318.501 168.614 318.005 168.342C317.517 168.07 317.133 167.686 316.853 167.19C316.573 166.686 316.433 166.11 316.433 165.462C316.433 164.814 316.573 164.242 316.853 163.746C317.133 163.25 317.517 162.866 318.005 162.594C318.501 162.322 319.057 162.186 319.673 162.186C320.097 162.186 320.485 162.258 320.837 162.402C321.189 162.546 321.489 162.762 321.737 163.05V159.762H323.237ZM319.853 167.466C320.213 167.466 320.537 167.386 320.825 167.226C321.113 167.058 321.341 166.822 321.509 166.518C321.677 166.214 321.761 165.862 321.761 165.462C321.761 165.062 321.677 164.71 321.509 164.406C321.341 164.102 321.113 163.87 320.825 163.71C320.537 163.542 320.213 163.458 319.853 163.458C319.493 163.458 319.169 163.542 318.881 163.71C318.593 163.87 318.365 164.102 318.197 164.406C318.029 164.71 317.945 165.062 317.945 165.462C317.945 165.862 318.029 166.214 318.197 166.518C318.365 166.822 318.593 167.058 318.881 167.226C319.169 167.386 319.493 167.466 319.853 167.466ZM327.647 162.186C328.591 162.186 329.311 162.414 329.807 162.87C330.311 163.318 330.563 163.998 330.563 164.91V168.666H329.147V167.886C328.963 168.166 328.699 168.382 328.355 168.534C328.019 168.678 327.611 168.75 327.131 168.75C326.651 168.75 326.231 168.67 325.871 168.51C325.511 168.342 325.231 168.114 325.031 167.826C324.839 167.53 324.743 167.198 324.743 166.83C324.743 166.254 324.955 165.794 325.379 165.45C325.811 165.098 326.487 164.922 327.407 164.922H329.063V164.826C329.063 164.378 328.927 164.034 328.655 163.794C328.391 163.554 327.995 163.434 327.467 163.434C327.107 163.434 326.751 163.49 326.399 163.602C326.055 163.714 325.763 163.87 325.523 164.07L324.935 162.978C325.271 162.722 325.675 162.526 326.147 162.39C326.619 162.254 327.119 162.186 327.647 162.186ZM327.443 167.658C327.819 167.658 328.151 167.574 328.439 167.406C328.735 167.23 328.943 166.982 329.063 166.662V165.918H327.515C326.651 165.918 326.219 166.202 326.219 166.77C326.219 167.042 326.327 167.258 326.543 167.418C326.759 167.578 327.059 167.658 327.443 167.658ZM338.371 162.258L335.371 169.182C335.091 169.878 334.751 170.366 334.351 170.646C333.951 170.934 333.467 171.078 332.899 171.078C332.579 171.078 332.263 171.026 331.951 170.922C331.639 170.818 331.383 170.674 331.183 170.49L331.783 169.386C331.927 169.522 332.095 169.63 332.287 169.71C332.487 169.79 332.687 169.83 332.887 169.83C333.151 169.83 333.367 169.762 333.535 169.626C333.711 169.49 333.871 169.262 334.015 168.942L334.123 168.69L331.327 162.258H332.887L334.903 166.998L336.931 162.258H338.371Z" fill="#A9AFBE"/>
</g>
<g filter="url(#filter4_d)">
<path d="M388.139 164.586H385.355V163.266H392.483V164.586H389.699V171.666H388.139V164.586ZM397.146 165.186C397.954 165.186 398.602 165.422 399.09 165.894C399.578 166.366 399.822 167.066 399.822 167.994V171.666H398.322V168.186C398.322 167.626 398.19 167.206 397.926 166.926C397.662 166.638 397.286 166.494 396.798 166.494C396.246 166.494 395.81 166.662 395.49 166.998C395.17 167.326 395.01 167.802 395.01 168.426V171.666H393.51V162.762H395.01V166.002C395.258 165.738 395.562 165.538 395.922 165.402C396.29 165.258 396.698 165.186 397.146 165.186ZM407.929 165.258V171.666H406.501V170.85C406.261 171.138 405.961 171.362 405.601 171.522C405.241 171.674 404.853 171.75 404.437 171.75C403.581 171.75 402.905 171.514 402.409 171.042C401.921 170.562 401.677 169.854 401.677 168.918V165.258H403.177V168.714C403.177 169.29 403.305 169.722 403.561 170.01C403.825 170.29 404.197 170.43 404.677 170.43C405.213 170.43 405.637 170.266 405.949 169.938C406.269 169.602 406.429 169.122 406.429 168.498V165.258H407.929ZM411.321 166.194C411.753 165.522 412.513 165.186 413.601 165.186V166.614C413.473 166.59 413.357 166.578 413.253 166.578C412.669 166.578 412.213 166.75 411.885 167.094C411.557 167.43 411.393 167.918 411.393 168.558V171.666H409.893V165.258H411.321V166.194ZM416.877 171.75C416.357 171.75 415.849 171.682 415.353 171.546C414.857 171.41 414.461 171.238 414.165 171.03L414.741 169.89C415.029 170.082 415.373 170.238 415.773 170.358C416.181 170.47 416.581 170.526 416.973 170.526C417.869 170.526 418.317 170.29 418.317 169.818C418.317 169.594 418.201 169.438 417.969 169.35C417.745 169.262 417.381 169.178 416.877 169.098C416.349 169.018 415.917 168.926 415.581 168.822C415.253 168.718 414.965 168.538 414.717 168.282C414.477 168.018 414.357 167.654 414.357 167.19C414.357 166.582 414.609 166.098 415.113 165.738C415.625 165.37 416.313 165.186 417.177 165.186C417.617 165.186 418.057 165.238 418.497 165.342C418.937 165.438 419.297 165.57 419.577 165.738L419.001 166.878C418.457 166.558 417.845 166.398 417.165 166.398C416.725 166.398 416.389 166.466 416.157 166.602C415.933 166.73 415.821 166.902 415.821 167.118C415.821 167.358 415.941 167.53 416.181 167.634C416.429 167.73 416.809 167.822 417.321 167.91C417.833 167.99 418.253 168.082 418.581 168.186C418.909 168.29 419.189 168.466 419.421 168.714C419.661 168.962 419.781 169.314 419.781 169.77C419.781 170.37 419.521 170.85 419.001 171.21C418.481 171.57 417.773 171.75 416.877 171.75ZM424.924 171.318C424.748 171.462 424.532 171.57 424.276 171.642C424.028 171.714 423.764 171.75 423.484 171.75C422.78 171.75 422.236 171.566 421.852 171.198C421.468 170.83 421.276 170.294 421.276 169.59V166.506H420.22V165.306H421.276V163.842H422.776V165.306H424.492V166.506H422.776V169.554C422.776 169.866 422.852 170.106 423.004 170.274C423.156 170.434 423.376 170.514 423.664 170.514C424 170.514 424.28 170.426 424.504 170.25L424.924 171.318ZM432.223 162.762V171.666H430.783V170.838C430.535 171.142 430.227 171.37 429.859 171.522C429.499 171.674 429.099 171.75 428.659 171.75C428.043 171.75 427.487 171.614 426.991 171.342C426.503 171.07 426.119 170.686 425.839 170.19C425.559 169.686 425.419 169.11 425.419 168.462C425.419 167.814 425.559 167.242 425.839 166.746C426.119 166.25 426.503 165.866 426.991 165.594C427.487 165.322 428.043 165.186 428.659 165.186C429.083 165.186 429.471 165.258 429.823 165.402C430.175 165.546 430.475 165.762 430.723 166.05V162.762H432.223ZM428.839 170.466C429.199 170.466 429.523 170.386 429.811 170.226C430.099 170.058 430.327 169.822 430.495 169.518C430.663 169.214 430.747 168.862 430.747 168.462C430.747 168.062 430.663 167.71 430.495 167.406C430.327 167.102 430.099 166.87 429.811 166.71C429.523 166.542 429.199 166.458 428.839 166.458C428.479 166.458 428.155 166.542 427.867 166.71C427.579 166.87 427.351 167.102 427.183 167.406C427.015 167.71 426.931 168.062 426.931 168.462C426.931 168.862 427.015 169.214 427.183 169.518C427.351 169.822 427.579 170.058 427.867 170.226C428.155 170.386 428.479 170.466 428.839 170.466ZM436.634 165.186C437.578 165.186 438.298 165.414 438.794 165.87C439.298 166.318 439.55 166.998 439.55 167.91V171.666H438.134V170.886C437.95 171.166 437.686 171.382 437.342 171.534C437.006 171.678 436.598 171.75 436.118 171.75C435.638 171.75 435.218 171.67 434.858 171.51C434.498 171.342 434.218 171.114 434.018 170.826C433.826 170.53 433.73 170.198 433.73 169.83C433.73 169.254 433.942 168.794 434.366 168.45C434.798 168.098 435.474 167.922 436.394 167.922H438.05V167.826C438.05 167.378 437.914 167.034 437.642 166.794C437.378 166.554 436.982 166.434 436.454 166.434C436.094 166.434 435.738 166.49 435.386 166.602C435.042 166.714 434.75 166.87 434.51 167.07L433.922 165.978C434.258 165.722 434.662 165.526 435.134 165.39C435.606 165.254 436.106 165.186 436.634 165.186ZM436.43 170.658C436.806 170.658 437.138 170.574 437.426 170.406C437.722 170.23 437.93 169.982 438.05 169.662V168.918H436.502C435.638 168.918 435.206 169.202 435.206 169.77C435.206 170.042 435.314 170.258 435.53 170.418C435.746 170.578 436.046 170.658 436.43 170.658ZM447.358 165.258L444.358 172.182C444.078 172.878 443.738 173.366 443.338 173.646C442.938 173.934 442.454 174.078 441.886 174.078C441.566 174.078 441.25 174.026 440.938 173.922C440.626 173.818 440.37 173.674 440.17 173.49L440.77 172.386C440.914 172.522 441.082 172.63 441.274 172.71C441.474 172.79 441.674 172.83 441.874 172.83C442.138 172.83 442.354 172.762 442.522 172.626C442.698 172.49 442.858 172.262 443.002 171.942L443.11 171.69L440.314 165.258H441.874L443.89 169.998L445.918 165.258H447.358Z" fill="#A9AFBE"/>
</g>
<g filter="url(#filter5_d)">
<path d="M518.837 164.574V167.13H522.893V168.45H518.837V171.666H517.277V163.266H523.409V164.574H518.837ZM526.084 166.194C526.516 165.522 527.276 165.186 528.364 165.186V166.614C528.236 166.59 528.12 166.578 528.016 166.578C527.432 166.578 526.976 166.75 526.648 167.094C526.32 167.43 526.156 167.918 526.156 168.558V171.666H524.656V165.258H526.084V166.194ZM529.637 165.258H531.137V171.666H529.637V165.258ZM530.393 164.202C530.121 164.202 529.893 164.118 529.709 163.95C529.525 163.774 529.433 163.558 529.433 163.302C529.433 163.046 529.525 162.834 529.709 162.666C529.893 162.49 530.121 162.402 530.393 162.402C530.665 162.402 530.893 162.486 531.077 162.654C531.261 162.814 531.353 163.018 531.353 163.266C531.353 163.53 531.261 163.754 531.077 163.938C530.901 164.114 530.673 164.202 530.393 164.202ZM539.382 162.762V171.666H537.942V170.838C537.694 171.142 537.386 171.37 537.018 171.522C536.658 171.674 536.258 171.75 535.818 171.75C535.202 171.75 534.646 171.614 534.15 171.342C533.662 171.07 533.278 170.686 532.998 170.19C532.718 169.686 532.578 169.11 532.578 168.462C532.578 167.814 532.718 167.242 532.998 166.746C533.278 166.25 533.662 165.866 534.15 165.594C534.646 165.322 535.202 165.186 535.818 165.186C536.242 165.186 536.63 165.258 536.982 165.402C537.334 165.546 537.634 165.762 537.882 166.05V162.762H539.382ZM535.998 170.466C536.358 170.466 536.682 170.386 536.97 170.226C537.258 170.058 537.486 169.822 537.654 169.518C537.822 169.214 537.906 168.862 537.906 168.462C537.906 168.062 537.822 167.71 537.654 167.406C537.486 167.102 537.258 166.87 536.97 166.71C536.682 166.542 536.358 166.458 535.998 166.458C535.638 166.458 535.314 166.542 535.026 166.71C534.738 166.87 534.51 167.102 534.342 167.406C534.174 167.71 534.09 168.062 534.09 168.462C534.09 168.862 534.174 169.214 534.342 169.518C534.51 169.822 534.738 170.058 535.026 170.226C535.314 170.386 535.638 170.466 535.998 170.466ZM543.792 165.186C544.736 165.186 545.456 165.414 545.952 165.87C546.456 166.318 546.708 166.998 546.708 167.91V171.666H545.292V170.886C545.108 171.166 544.844 171.382 544.5 171.534C544.164 171.678 543.756 171.75 543.276 171.75C542.796 171.75 542.376 171.67 542.016 171.51C541.656 171.342 541.376 171.114 541.176 170.826C540.984 170.53 540.888 170.198 540.888 169.83C540.888 169.254 541.1 168.794 541.524 168.45C541.956 168.098 542.632 167.922 543.552 167.922H545.208V167.826C545.208 167.378 545.072 167.034 544.8 166.794C544.536 166.554 544.14 166.434 543.612 166.434C543.252 166.434 542.896 166.49 542.544 166.602C542.2 166.714 541.908 166.87 541.668 167.07L541.08 165.978C541.416 165.722 541.82 165.526 542.292 165.39C542.764 165.254 543.264 165.186 543.792 165.186ZM543.588 170.658C543.964 170.658 544.296 170.574 544.584 170.406C544.88 170.23 545.088 169.982 545.208 169.662V168.918H543.66C542.796 168.918 542.364 169.202 542.364 169.77C542.364 170.042 542.472 170.258 542.688 170.418C542.904 170.578 543.204 170.658 543.588 170.658ZM554.516 165.258L551.516 172.182C551.236 172.878 550.896 173.366 550.496 173.646C550.096 173.934 549.612 174.078 549.044 174.078C548.724 174.078 548.408 174.026 548.096 173.922C547.784 173.818 547.528 173.674 547.328 173.49L547.928 172.386C548.072 172.522 548.24 172.63 548.432 172.71C548.632 172.79 548.832 172.83 549.032 172.83C549.296 172.83 549.512 172.762 549.68 172.626C549.856 172.49 550.016 172.262 550.16 171.942L550.268 171.69L547.472 165.258H549.032L551.048 169.998L553.076 165.258H554.516Z" fill="#A9AFBE"/>
</g>
<g filter="url(#filter6_d)">
<rect x="45.1191" y="0.5" width="46.3093" height="141.416" fill="#F7B928"/>
</g>
<g filter="url(#filter7_d)">
<rect x="161.428" y="72.5402" width="46.3093" height="69.3754" fill="#F3425F"/>
</g>
<g filter="url(#filter8_d)">
<rect x="277.737" y="45" width="46.3093" height="96.9155" fill="#1878F3"/>
</g>
<g filter="url(#filter9_d)">
<rect x="394.047" y="15.5445" width="46.3093" height="126.371" fill="#9260F7"/>
</g>
<g filter="url(#filter10_d)">
<rect x="510.356" y="45" width="46.3093" height="96.9155" fill="#45BD63"/>
</g>
<g filter="url(#filter11_d)">
<path d="M57.288 131.144C57.3813 131.61 57.582 131.965 57.89 132.208C58.198 132.45 58.6133 132.572 59.136 132.572C59.7986 132.572 60.284 132.31 60.592 131.788C60.9 131.265 61.054 130.374 61.054 129.114C60.83 129.431 60.5126 129.678 60.102 129.856C59.7006 130.024 59.262 130.108 58.786 130.108C58.1793 130.108 57.6286 129.986 57.134 129.744C56.6393 129.492 56.2473 129.123 55.958 128.638C55.678 128.143 55.538 127.546 55.538 126.846C55.538 125.819 55.8366 125.002 56.434 124.396C57.0406 123.78 57.8713 123.472 58.926 123.472C60.1953 123.472 61.096 123.896 61.628 124.746C62.1693 125.586 62.44 126.878 62.44 128.624C62.44 129.828 62.3373 130.812 62.132 131.578C61.936 132.343 61.5906 132.922 61.096 133.314C60.6013 133.706 59.9153 133.902 59.038 133.902C58.0393 133.902 57.2693 133.64 56.728 133.118C56.1866 132.595 55.8833 131.937 55.818 131.144H57.288ZM59.066 128.764C59.626 128.764 60.0646 128.591 60.382 128.246C60.7086 127.891 60.872 127.424 60.872 126.846C60.872 126.202 60.6993 125.702 60.354 125.348C60.018 124.984 59.556 124.802 58.968 124.802C58.38 124.802 57.9133 124.988 57.568 125.362C57.232 125.726 57.064 126.206 57.064 126.804C57.064 127.373 57.2273 127.844 57.554 128.218C57.89 128.582 58.394 128.764 59.066 128.764ZM65.9087 128.582C64.938 128.096 64.4527 127.331 64.4527 126.286C64.4527 125.782 64.5787 125.32 64.8307 124.9C65.0827 124.48 65.4607 124.148 65.9647 123.906C66.4687 123.654 67.0847 123.528 67.8127 123.528C68.5313 123.528 69.1427 123.654 69.6467 123.906C70.16 124.148 70.5427 124.48 70.7947 124.9C71.0467 125.32 71.1727 125.782 71.1727 126.286C71.1727 126.808 71.0373 127.27 70.7667 127.672C70.5053 128.064 70.1553 128.367 69.7167 128.582C70.2487 128.778 70.6687 129.1 70.9767 129.548C71.2847 129.986 71.4387 130.504 71.4387 131.102C71.4387 131.708 71.2847 132.245 70.9767 132.712C70.6687 133.178 70.2393 133.538 69.6887 133.79C69.138 134.042 68.5127 134.168 67.8127 134.168C67.1127 134.168 66.4873 134.042 65.9367 133.79C65.3953 133.538 64.9707 133.178 64.6627 132.712C64.3547 132.245 64.2007 131.708 64.2007 131.102C64.2007 130.495 64.3547 129.972 64.6627 129.534C64.9707 129.095 65.386 128.778 65.9087 128.582ZM69.6467 126.482C69.6467 125.959 69.4833 125.558 69.1567 125.278C68.83 124.998 68.382 124.858 67.8127 124.858C67.2527 124.858 66.8093 124.998 66.4827 125.278C66.156 125.558 65.9927 125.964 65.9927 126.496C65.9927 126.962 66.1607 127.345 66.4967 127.644C66.842 127.933 67.2807 128.078 67.8127 128.078C68.3447 128.078 68.7833 127.928 69.1287 127.63C69.474 127.331 69.6467 126.948 69.6467 126.482ZM67.8127 129.282C67.1967 129.282 66.6927 129.436 66.3007 129.744C65.918 130.042 65.7267 130.476 65.7267 131.046C65.7267 131.578 65.9133 132.012 66.2867 132.348C66.66 132.674 67.1687 132.838 67.8127 132.838C68.4473 132.838 68.9467 132.67 69.3107 132.334C69.684 131.998 69.8707 131.568 69.8707 131.046C69.8707 130.486 69.6793 130.052 69.2967 129.744C68.9233 129.436 68.4287 129.282 67.8127 129.282ZM72.8624 126.174C72.8624 125.492 73.0584 124.96 73.4504 124.578C73.8517 124.186 74.3651 123.99 74.9904 123.99C75.6157 123.99 76.1244 124.186 76.5164 124.578C76.9177 124.96 77.1184 125.492 77.1184 126.174C77.1184 126.855 76.9177 127.392 76.5164 127.784C76.1244 128.176 75.6157 128.372 74.9904 128.372C74.3651 128.372 73.8517 128.176 73.4504 127.784C73.0584 127.392 72.8624 126.855 72.8624 126.174ZM81.4024 124.172L75.8164 133.916H74.2484L79.8344 124.172H81.4024ZM74.9904 124.956C74.4024 124.956 74.1084 125.362 74.1084 126.174C74.1084 126.995 74.4024 127.406 74.9904 127.406C75.2704 127.406 75.4851 127.308 75.6344 127.112C75.7931 126.906 75.8724 126.594 75.8724 126.174C75.8724 125.362 75.5784 124.956 74.9904 124.956ZM78.5604 131.9C78.5604 131.218 78.7564 130.686 79.1484 130.304C79.5497 129.912 80.0631 129.716 80.6884 129.716C81.3044 129.716 81.8084 129.912 82.2004 130.304C82.6017 130.686 82.8024 131.218 82.8024 131.9C82.8024 132.581 82.6017 133.118 82.2004 133.51C81.8084 133.902 81.3044 134.098 80.6884 134.098C80.0631 134.098 79.5497 133.902 79.1484 133.51C78.7564 133.118 78.5604 132.581 78.5604 131.9ZM80.6744 130.682C80.0864 130.682 79.7924 131.088 79.7924 131.9C79.7924 132.712 80.0864 133.118 80.6744 133.118C81.2624 133.118 81.5564 132.712 81.5564 131.9C81.5564 131.088 81.2624 130.682 80.6744 130.682Z" fill="white"/>
</g>
<g filter="url(#filter12_d)">
<path d="M171.727 131.788V130.584L176.431 123.836H178.363V130.402H179.665V131.788H178.363V133.916H176.795V131.788H171.727ZM176.865 125.46L173.561 130.402H176.865V125.46ZM180.987 128.68C180.987 127.065 181.258 125.805 181.799 124.9C182.35 123.985 183.293 123.528 184.627 123.528C185.962 123.528 186.9 123.985 187.441 124.9C187.992 125.805 188.267 127.065 188.267 128.68C188.267 130.313 187.992 131.592 187.441 132.516C186.9 133.43 185.962 133.888 184.627 133.888C183.293 133.888 182.35 133.43 181.799 132.516C181.258 131.592 180.987 130.313 180.987 128.68ZM186.699 128.68C186.699 127.924 186.648 127.284 186.545 126.762C186.452 126.239 186.256 125.814 185.957 125.488C185.659 125.152 185.215 124.984 184.627 124.984C184.039 124.984 183.596 125.152 183.297 125.488C182.999 125.814 182.798 126.239 182.695 126.762C182.602 127.284 182.555 127.924 182.555 128.68C182.555 129.464 182.602 130.122 182.695 130.654C182.789 131.186 182.985 131.615 183.283 131.942C183.591 132.268 184.039 132.432 184.627 132.432C185.215 132.432 185.659 132.268 185.957 131.942C186.265 131.615 186.466 131.186 186.559 130.654C186.653 130.122 186.699 129.464 186.699 128.68ZM189.704 126.174C189.704 125.492 189.9 124.96 190.292 124.578C190.694 124.186 191.207 123.99 191.832 123.99C192.458 123.99 192.966 124.186 193.358 124.578C193.76 124.96 193.96 125.492 193.96 126.174C193.96 126.855 193.76 127.392 193.358 127.784C192.966 128.176 192.458 128.372 191.832 128.372C191.207 128.372 190.694 128.176 190.292 127.784C189.9 127.392 189.704 126.855 189.704 126.174ZM198.244 124.172L192.658 133.916H191.09L196.676 124.172H198.244ZM191.832 124.956C191.244 124.956 190.95 125.362 190.95 126.174C190.95 126.995 191.244 127.406 191.832 127.406C192.112 127.406 192.327 127.308 192.476 127.112C192.635 126.906 192.714 126.594 192.714 126.174C192.714 125.362 192.42 124.956 191.832 124.956ZM195.402 131.9C195.402 131.218 195.598 130.686 195.99 130.304C196.392 129.912 196.905 129.716 197.53 129.716C198.146 129.716 198.65 129.912 199.042 130.304C199.444 130.686 199.644 131.218 199.644 131.9C199.644 132.581 199.444 133.118 199.042 133.51C198.65 133.902 198.146 134.098 197.53 134.098C196.905 134.098 196.392 133.902 195.99 133.51C195.598 133.118 195.402 132.581 195.402 131.9ZM197.516 130.682C196.928 130.682 196.634 131.088 196.634 131.9C196.634 132.712 196.928 133.118 197.516 133.118C198.104 133.118 198.398 132.712 198.398 131.9C198.398 131.088 198.104 130.682 197.516 130.682Z" fill="white"/>
</g>
<g filter="url(#filter13_d)">
<path d="M294.558 124.942L290.666 133.916H289.056L292.99 125.11H287.81V123.752H294.558V124.942ZM295.924 128.68C295.924 127.065 296.195 125.805 296.736 124.9C297.287 123.985 298.229 123.528 299.564 123.528C300.899 123.528 301.837 123.985 302.378 124.9C302.929 125.805 303.204 127.065 303.204 128.68C303.204 130.313 302.929 131.592 302.378 132.516C301.837 133.43 300.899 133.888 299.564 133.888C298.229 133.888 297.287 133.43 296.736 132.516C296.195 131.592 295.924 130.313 295.924 128.68ZM301.636 128.68C301.636 127.924 301.585 127.284 301.482 126.762C301.389 126.239 301.193 125.814 300.894 125.488C300.595 125.152 300.152 124.984 299.564 124.984C298.976 124.984 298.533 125.152 298.234 125.488C297.935 125.814 297.735 126.239 297.632 126.762C297.539 127.284 297.492 127.924 297.492 128.68C297.492 129.464 297.539 130.122 297.632 130.654C297.725 131.186 297.921 131.615 298.22 131.942C298.528 132.268 298.976 132.432 299.564 132.432C300.152 132.432 300.595 132.268 300.894 131.942C301.202 131.615 301.403 131.186 301.496 130.654C301.589 130.122 301.636 129.464 301.636 128.68ZM304.641 126.174C304.641 125.492 304.837 124.96 305.229 124.578C305.63 124.186 306.143 123.99 306.769 123.99C307.394 123.99 307.903 124.186 308.295 124.578C308.696 124.96 308.897 125.492 308.897 126.174C308.897 126.855 308.696 127.392 308.295 127.784C307.903 128.176 307.394 128.372 306.769 128.372C306.143 128.372 305.63 128.176 305.229 127.784C304.837 127.392 304.641 126.855 304.641 126.174ZM313.181 124.172L307.595 133.916H306.027L311.613 124.172H313.181ZM306.769 124.956C306.181 124.956 305.887 125.362 305.887 126.174C305.887 126.995 306.181 127.406 306.769 127.406C307.049 127.406 307.263 127.308 307.413 127.112C307.571 126.906 307.651 126.594 307.651 126.174C307.651 125.362 307.357 124.956 306.769 124.956ZM310.339 131.9C310.339 131.218 310.535 130.686 310.927 130.304C311.328 129.912 311.841 129.716 312.467 129.716C313.083 129.716 313.587 129.912 313.979 130.304C314.38 130.686 314.581 131.218 314.581 131.9C314.581 132.581 314.38 133.118 313.979 133.51C313.587 133.902 313.083 134.098 312.467 134.098C311.841 134.098 311.328 133.902 310.927 133.51C310.535 133.118 310.339 132.581 310.339 131.9ZM312.453 130.682C311.865 130.682 311.571 131.088 311.571 131.9C311.571 132.712 311.865 133.118 312.453 133.118C313.041 133.118 313.335 132.712 313.335 131.9C313.335 131.088 313.041 130.682 312.453 130.682Z" fill="white"/>
</g>
<g filter="url(#filter14_d)">
<path d="M406.121 128.582C405.15 128.096 404.665 127.331 404.665 126.286C404.665 125.782 404.791 125.32 405.043 124.9C405.295 124.48 405.673 124.148 406.177 123.906C406.681 123.654 407.297 123.528 408.025 123.528C408.743 123.528 409.355 123.654 409.859 123.906C410.372 124.148 410.755 124.48 411.007 124.9C411.259 125.32 411.385 125.782 411.385 126.286C411.385 126.808 411.249 127.27 410.979 127.672C410.717 128.064 410.367 128.367 409.929 128.582C410.461 128.778 410.881 129.1 411.189 129.548C411.497 129.986 411.651 130.504 411.651 131.102C411.651 131.708 411.497 132.245 411.189 132.712C410.881 133.178 410.451 133.538 409.901 133.79C409.35 134.042 408.725 134.168 408.025 134.168C407.325 134.168 406.699 134.042 406.149 133.79C405.607 133.538 405.183 133.178 404.875 132.712C404.567 132.245 404.413 131.708 404.413 131.102C404.413 130.495 404.567 129.972 404.875 129.534C405.183 129.095 405.598 128.778 406.121 128.582ZM409.859 126.482C409.859 125.959 409.695 125.558 409.369 125.278C409.042 124.998 408.594 124.858 408.025 124.858C407.465 124.858 407.021 124.998 406.695 125.278C406.368 125.558 406.205 125.964 406.205 126.496C406.205 126.962 406.373 127.345 406.709 127.644C407.054 127.933 407.493 128.078 408.025 128.078C408.557 128.078 408.995 127.928 409.341 127.63C409.686 127.331 409.859 126.948 409.859 126.482ZM408.025 129.282C407.409 129.282 406.905 129.436 406.513 129.744C406.13 130.042 405.939 130.476 405.939 131.046C405.939 131.578 406.125 132.012 406.499 132.348C406.872 132.674 407.381 132.838 408.025 132.838C408.659 132.838 409.159 132.67 409.523 132.334C409.896 131.998 410.083 131.568 410.083 131.046C410.083 130.486 409.891 130.052 409.509 129.744C409.135 129.436 408.641 129.282 408.025 129.282ZM419.906 125.082H415.216V127.868C415.412 127.606 415.702 127.387 416.084 127.21C416.476 127.032 416.892 126.944 417.33 126.944C418.114 126.944 418.749 127.112 419.234 127.448C419.729 127.784 420.079 128.208 420.284 128.722C420.499 129.235 420.606 129.776 420.606 130.346C420.606 131.036 420.471 131.652 420.2 132.194C419.939 132.726 419.542 133.146 419.01 133.454C418.488 133.762 417.844 133.916 417.078 133.916C416.061 133.916 415.244 133.664 414.628 133.16C414.012 132.656 413.644 131.988 413.522 131.158H415.076C415.179 131.596 415.408 131.946 415.762 132.208C416.117 132.46 416.56 132.586 417.092 132.586C417.755 132.586 418.25 132.385 418.576 131.984C418.912 131.582 419.08 131.05 419.08 130.388C419.08 129.716 418.912 129.202 418.576 128.848C418.24 128.484 417.746 128.302 417.092 128.302C416.635 128.302 416.248 128.418 415.93 128.652C415.622 128.876 415.398 129.184 415.258 129.576H413.746V123.682H419.906V125.082ZM422.016 126.174C422.016 125.492 422.212 124.96 422.604 124.578C423.005 124.186 423.518 123.99 424.144 123.99C424.769 123.99 425.278 124.186 425.67 124.578C426.071 124.96 426.272 125.492 426.272 126.174C426.272 126.855 426.071 127.392 425.67 127.784C425.278 128.176 424.769 128.372 424.144 128.372C423.518 128.372 423.005 128.176 422.604 127.784C422.212 127.392 422.016 126.855 422.016 126.174ZM430.556 124.172L424.97 133.916H423.402L428.988 124.172H430.556ZM424.144 124.956C423.556 124.956 423.262 125.362 423.262 126.174C423.262 126.995 423.556 127.406 424.144 127.406C424.424 127.406 424.638 127.308 424.788 127.112C424.946 126.906 425.026 126.594 425.026 126.174C425.026 125.362 424.732 124.956 424.144 124.956ZM427.714 131.9C427.714 131.218 427.91 130.686 428.302 130.304C428.703 129.912 429.216 129.716 429.842 129.716C430.458 129.716 430.962 129.912 431.354 130.304C431.755 130.686 431.956 131.218 431.956 131.9C431.956 132.581 431.755 133.118 431.354 133.51C430.962 133.902 430.458 134.098 429.842 134.098C429.216 134.098 428.703 133.902 428.302 133.51C427.91 133.118 427.714 132.581 427.714 131.9ZM429.828 130.682C429.24 130.682 428.946 131.088 428.946 131.9C428.946 132.712 429.24 133.118 429.828 133.118C430.416 133.118 430.71 132.712 430.71 131.9C430.71 131.088 430.416 130.682 429.828 130.682Z" fill="white"/>
</g>
<g filter="url(#filter15_d)">
<path d="M526.137 126.076C526.034 125.646 525.848 125.324 525.577 125.11C525.306 124.895 524.928 124.788 524.443 124.788C523.706 124.788 523.155 125.072 522.791 125.642C522.427 126.202 522.236 127.135 522.217 128.442C522.46 128.031 522.814 127.714 523.281 127.49C523.748 127.266 524.252 127.154 524.793 127.154C525.409 127.154 525.95 127.289 526.417 127.56C526.893 127.821 527.262 128.204 527.523 128.708C527.794 129.212 527.929 129.814 527.929 130.514C527.929 131.167 527.798 131.75 527.537 132.264C527.285 132.777 526.907 133.183 526.403 133.482C525.899 133.771 525.292 133.916 524.583 133.916C523.622 133.916 522.866 133.706 522.315 133.286C521.774 132.856 521.391 132.254 521.167 131.48C520.952 130.705 520.845 129.739 520.845 128.582C520.845 125.166 522.049 123.458 524.457 123.458C525.39 123.458 526.123 123.71 526.655 124.214C527.196 124.718 527.514 125.338 527.607 126.076H526.137ZM524.443 128.498C523.874 128.498 523.388 128.67 522.987 129.016C522.595 129.352 522.399 129.842 522.399 130.486C522.399 131.13 522.581 131.643 522.945 132.026C523.318 132.399 523.836 132.586 524.499 132.586C525.087 132.586 525.549 132.404 525.885 132.04C526.23 131.676 526.403 131.19 526.403 130.584C526.403 129.949 526.235 129.445 525.899 129.072C525.572 128.689 525.087 128.498 524.443 128.498ZM531.354 128.582C530.383 128.096 529.898 127.331 529.898 126.286C529.898 125.782 530.024 125.32 530.276 124.9C530.528 124.48 530.906 124.148 531.41 123.906C531.914 123.654 532.53 123.528 533.258 123.528C533.976 123.528 534.588 123.654 535.092 123.906C535.605 124.148 535.988 124.48 536.24 124.9C536.492 125.32 536.618 125.782 536.618 126.286C536.618 126.808 536.482 127.27 536.212 127.672C535.95 128.064 535.6 128.367 535.162 128.582C535.694 128.778 536.114 129.1 536.422 129.548C536.73 129.986 536.884 130.504 536.884 131.102C536.884 131.708 536.73 132.245 536.422 132.712C536.114 133.178 535.684 133.538 535.134 133.79C534.583 134.042 533.958 134.168 533.258 134.168C532.558 134.168 531.932 134.042 531.382 133.79C530.84 133.538 530.416 133.178 530.108 132.712C529.8 132.245 529.646 131.708 529.646 131.102C529.646 130.495 529.8 129.972 530.108 129.534C530.416 129.095 530.831 128.778 531.354 128.582ZM535.092 126.482C535.092 125.959 534.928 125.558 534.602 125.278C534.275 124.998 533.827 124.858 533.258 124.858C532.698 124.858 532.254 124.998 531.928 125.278C531.601 125.558 531.438 125.964 531.438 126.496C531.438 126.962 531.606 127.345 531.942 127.644C532.287 127.933 532.726 128.078 533.258 128.078C533.79 128.078 534.228 127.928 534.574 127.63C534.919 127.331 535.092 126.948 535.092 126.482ZM533.258 129.282C532.642 129.282 532.138 129.436 531.746 129.744C531.363 130.042 531.172 130.476 531.172 131.046C531.172 131.578 531.358 132.012 531.732 132.348C532.105 132.674 532.614 132.838 533.258 132.838C533.892 132.838 534.392 132.67 534.756 132.334C535.129 131.998 535.316 131.568 535.316 131.046C535.316 130.486 535.124 130.052 534.742 129.744C534.368 129.436 533.874 129.282 533.258 129.282ZM538.307 126.174C538.307 125.492 538.503 124.96 538.895 124.578C539.297 124.186 539.81 123.99 540.435 123.99C541.061 123.99 541.569 124.186 541.961 124.578C542.363 124.96 542.563 125.492 542.563 126.174C542.563 126.855 542.363 127.392 541.961 127.784C541.569 128.176 541.061 128.372 540.435 128.372C539.81 128.372 539.297 128.176 538.895 127.784C538.503 127.392 538.307 126.855 538.307 126.174ZM546.847 124.172L541.261 133.916H539.693L545.279 124.172H546.847ZM540.435 124.956C539.847 124.956 539.553 125.362 539.553 126.174C539.553 126.995 539.847 127.406 540.435 127.406C540.715 127.406 540.93 127.308 541.079 127.112C541.238 126.906 541.317 126.594 541.317 126.174C541.317 125.362 541.023 124.956 540.435 124.956ZM544.005 131.9C544.005 131.218 544.201 130.686 544.593 130.304C544.995 129.912 545.508 129.716 546.133 129.716C546.749 129.716 547.253 129.912 547.645 130.304C548.047 130.686 548.247 131.218 548.247 131.9C548.247 132.581 548.047 133.118 547.645 133.51C547.253 133.902 546.749 134.098 546.133 134.098C545.508 134.098 544.995 133.902 544.593 133.51C544.201 133.118 544.005 132.581 544.005 131.9ZM546.119 130.682C545.531 130.682 545.237 131.088 545.237 131.9C545.237 132.712 545.531 133.118 546.119 133.118C546.707 133.118 547.001 132.712 547.001 131.9C547.001 131.088 546.707 130.682 546.119 130.682Z" fill="white"/>
</g>
<defs>
<filter id="filter0_d" x="0.5" y="142" width="602.5" height="9" filterUnits="userSpaceOnUse" color-interpolation-filters="sRGB">
<feFlood flood-opacity="0" result="BackgroundImageFix"/>
<feColorMatrix in="SourceAlpha" type="matrix" values="0 0 0 0 0 0 0 0 0 0 0 0 0 0 0 0 0 0 127 0"/>
<feOffset dy="4"/>
<feGaussianBlur stdDeviation="2"/>
<feColorMatrix type="matrix" values="0 0 0 0 0 0 0 0 0 0 0 0 0 0 0 0 0 0 0.25 0"/>
<feBlend mode="normal" in2="BackgroundImageFix" result="effect1_dropShadow"/>
<feBlend mode="normal" in="SourceGraphic" in2="effect1_dropShadow" result="shape"/>
</filter>
<filter id="filter1_d" x="38.0289" y="159.762" width="56.7349" height="19.316" filterUnits="userSpaceOnUse" color-interpolation-filters="sRGB">
<feFlood flood-opacity="0" result="BackgroundImageFix"/>
<feColorMatrix in="SourceAlpha" type="matrix" values="0 0 0 0 0 0 0 0 0 0 0 0 0 0 0 0 0 0 127 0"/>
<feOffset dy="4"/>
<feGaussianBlur stdDeviation="2"/>
<feColorMatrix type="matrix" values="0 0 0 0 0 0 0 0 0 0 0 0 0 0 0 0 0 0 0.25 0"/>
<feBlend mode="normal" in2="BackgroundImageFix" result="effect1_dropShadow"/>
<feBlend mode="normal" in="SourceGraphic" in2="effect1_dropShadow" result="shape"/>
</filter>
<filter id="filter2_d" x="155.246" y="159.762" width="59.2212" height="19.316" filterUnits="userSpaceOnUse" color-interpolation-filters="sRGB">
<feFlood flood-opacity="0" result="BackgroundImageFix"/>
<feColorMatrix in="SourceAlpha" type="matrix" values="0 0 0 0 0 0 0 0 0 0 0 0 0 0 0 0 0 0 127 0"/>
<feOffset dy="4"/>
<feGaussianBlur stdDeviation="2"/>
<feColorMatrix type="matrix" values="0 0 0 0 0 0 0 0 0 0 0 0 0 0 0 0 0 0 0.25 0"/>
<feBlend mode="normal" in2="BackgroundImageFix" result="effect1_dropShadow"/>
<feBlend mode="normal" in="SourceGraphic" in2="effect1_dropShadow" result="shape"/>
</filter>
<filter id="filter3_d" x="261.617" y="159.762" width="80.7538" height="19.316" filterUnits="userSpaceOnUse" color-interpolation-filters="sRGB">
<feFlood flood-opacity="0" result="BackgroundImageFix"/>
<feColorMatrix in="SourceAlpha" type="matrix" values="0 0 0 0 0 0 0 0 0 0 0 0 0 0 0 0 0 0 127 0"/>
<feOffset dy="4"/>
<feGaussianBlur stdDeviation="2"/>
<feColorMatrix type="matrix" values="0 0 0 0 0 0 0 0 0 0 0 0 0 0 0 0 0 0 0.25 0"/>
<feBlend mode="normal" in2="BackgroundImageFix" result="effect1_dropShadow"/>
<feBlend mode="normal" in="SourceGraphic" in2="effect1_dropShadow" result="shape"/>
</filter>
<filter id="filter4_d" x="381.355" y="162.762" width="70.0024" height="19.316" filterUnits="userSpaceOnUse" color-interpolation-filters="sRGB">
<feFlood flood-opacity="0" result="BackgroundImageFix"/>
<feColorMatrix in="SourceAlpha" type="matrix" values="0 0 0 0 0 0 0 0 0 0 0 0 0 0 0 0 0 0 127 0"/>
<feOffset dy="4"/>
<feGaussianBlur stdDeviation="2"/>
<feColorMatrix type="matrix" values="0 0 0 0 0 0 0 0 0 0 0 0 0 0 0 0 0 0 0.25 0"/>
<feBlend mode="normal" in2="BackgroundImageFix" result="effect1_dropShadow"/>
<feBlend mode="normal" in="SourceGraphic" in2="effect1_dropShadow" result="shape"/>
</filter>
<filter id="filter5_d" x="513.277" y="162.402" width="45.2388" height="19.676" filterUnits="userSpaceOnUse" color-interpolation-filters="sRGB">
<feFlood flood-opacity="0" result="BackgroundImageFix"/>
<feColorMatrix in="SourceAlpha" type="matrix" values="0 0 0 0 0 0 0 0 0 0 0 0 0 0 0 0 0 0 127 0"/>
<feOffset dy="4"/>
<feGaussianBlur stdDeviation="2"/>
<feColorMatrix type="matrix" values="0 0 0 0 0 0 0 0 0 0 0 0 0 0 0 0 0 0 0.25 0"/>
<feBlend mode="normal" in2="BackgroundImageFix" result="effect1_dropShadow"/>
<feBlend mode="normal" in="SourceGraphic" in2="effect1_dropShadow" result="shape"/>
</filter>
<filter id="filter6_d" x="41.1191" y="0.5" width="54.3093" height="149.416" filterUnits="userSpaceOnUse" color-interpolation-filters="sRGB">
<feFlood flood-opacity="0" result="BackgroundImageFix"/>
<feColorMatrix in="SourceAlpha" type="matrix" values="0 0 0 0 0 0 0 0 0 0 0 0 0 0 0 0 0 0 127 0"/>
<feOffset dy="4"/>
<feGaussianBlur stdDeviation="2"/>
<feColorMatrix type="matrix" values="0 0 0 0 0 0 0 0 0 0 0 0 0 0 0 0 0 0 0.25 0"/>
<feBlend mode="normal" in2="BackgroundImageFix" result="effect1_dropShadow"/>
<feBlend mode="normal" in="SourceGraphic" in2="effect1_dropShadow" result="shape"/>
</filter>
<filter id="filter7_d" x="157.428" y="72.5402" width="54.3093" height="77.3754" filterUnits="userSpaceOnUse" color-interpolation-filters="sRGB">
<feFlood flood-opacity="0" result="BackgroundImageFix"/>
<feColorMatrix in="SourceAlpha" type="matrix" values="0 0 0 0 0 0 0 0 0 0 0 0 0 0 0 0 0 0 127 0"/>
<feOffset dy="4"/>
<feGaussianBlur stdDeviation="2"/>
<feColorMatrix type="matrix" values="0 0 0 0 0 0 0 0 0 0 0 0 0 0 0 0 0 0 0.25 0"/>
<feBlend mode="normal" in2="BackgroundImageFix" result="effect1_dropShadow"/>
<feBlend mode="normal" in="SourceGraphic" in2="effect1_dropShadow" result="shape"/>
</filter>
<filter id="filter8_d" x="273.737" y="45" width="54.3093" height="104.916" filterUnits="userSpaceOnUse" color-interpolation-filters="sRGB">
<feFlood flood-opacity="0" result="BackgroundImageFix"/>
<feColorMatrix in="SourceAlpha" type="matrix" values="0 0 0 0 0 0 0 0 0 0 0 0 0 0 0 0 0 0 127 0"/>
<feOffset dy="4"/>
<feGaussianBlur stdDeviation="2"/>
<feColorMatrix type="matrix" values="0 0 0 0 0 0 0 0 0 0 0 0 0 0 0 0 0 0 0.25 0"/>
<feBlend mode="normal" in2="BackgroundImageFix" result="effect1_dropShadow"/>
<feBlend mode="normal" in="SourceGraphic" in2="effect1_dropShadow" result="shape"/>
</filter>
<filter id="filter9_d" x="390.047" y="15.5445" width="54.3093" height="134.371" filterUnits="userSpaceOnUse" color-interpolation-filters="sRGB">
<feFlood flood-opacity="0" result="BackgroundImageFix"/>
<feColorMatrix in="SourceAlpha" type="matrix" values="0 0 0 0 0 0 0 0 0 0 0 0 0 0 0 0 0 0 127 0"/>
<feOffset dy="4"/>
<feGaussianBlur stdDeviation="2"/>
<feColorMatrix type="matrix" values="0 0 0 0 0 0 0 0 0 0 0 0 0 0 0 0 0 0 0.25 0"/>
<feBlend mode="normal" in2="BackgroundImageFix" result="effect1_dropShadow"/>
<feBlend mode="normal" in="SourceGraphic" in2="effect1_dropShadow" result="shape"/>
</filter>
<filter id="filter10_d" x="506.356" y="45" width="54.3093" height="104.916" filterUnits="userSpaceOnUse" color-interpolation-filters="sRGB">
<feFlood flood-opacity="0" result="BackgroundImageFix"/>
<feColorMatrix in="SourceAlpha" type="matrix" values="0 0 0 0 0 0 0 0 0 0 0 0 0 0 0 0 0 0 127 0"/>
<feOffset dy="4"/>
<feGaussianBlur stdDeviation="2"/>
<feColorMatrix type="matrix" values="0 0 0 0 0 0 0 0 0 0 0 0 0 0 0 0 0 0 0.25 0"/>
<feBlend mode="normal" in2="BackgroundImageFix" result="effect1_dropShadow"/>
<feBlend mode="normal" in="SourceGraphic" in2="effect1_dropShadow" result="shape"/>
</filter>
<filter id="filter11_d" x="51.538" y="123.472" width="35.2645" height="18.696" filterUnits="userSpaceOnUse" color-interpolation-filters="sRGB">
<feFlood flood-opacity="0" result="BackgroundImageFix"/>
<feColorMatrix in="SourceAlpha" type="matrix" values="0 0 0 0 0 0 0 0 0 0 0 0 0 0 0 0 0 0 127 0"/>
<feOffset dy="4"/>
<feGaussianBlur stdDeviation="2"/>
<feColorMatrix type="matrix" values="0 0 0 0 0 0 0 0 0 0 0 0 0 0 0 0 0 0 0.25 0"/>
<feBlend mode="normal" in2="BackgroundImageFix" result="effect1_dropShadow"/>
<feBlend mode="normal" in="SourceGraphic" in2="effect1_dropShadow" result="shape"/>
</filter>
<filter id="filter12_d" x="167.727" y="123.528" width="35.9172" height="18.57" filterUnits="userSpaceOnUse" color-interpolation-filters="sRGB">
<feFlood flood-opacity="0" result="BackgroundImageFix"/>
<feColorMatrix in="SourceAlpha" type="matrix" values="0 0 0 0 0 0 0 0 0 0 0 0 0 0 0 0 0 0 127 0"/>
<feOffset dy="4"/>
<feGaussianBlur stdDeviation="2"/>
<feColorMatrix type="matrix" values="0 0 0 0 0 0 0 0 0 0 0 0 0 0 0 0 0 0 0.25 0"/>
<feBlend mode="normal" in2="BackgroundImageFix" result="effect1_dropShadow"/>
<feBlend mode="normal" in="SourceGraphic" in2="effect1_dropShadow" result="shape"/>
</filter>
<filter id="filter13_d" x="283.81" y="123.528" width="34.7707" height="18.57" filterUnits="userSpaceOnUse" color-interpolation-filters="sRGB">
<feFlood flood-opacity="0" result="BackgroundImageFix"/>
<feColorMatrix in="SourceAlpha" type="matrix" values="0 0 0 0 0 0 0 0 0 0 0 0 0 0 0 0 0 0 127 0"/>
<feOffset dy="4"/>
<feGaussianBlur stdDeviation="2"/>
<feColorMatrix type="matrix" values="0 0 0 0 0 0 0 0 0 0 0 0 0 0 0 0 0 0 0.25 0"/>
<feBlend mode="normal" in2="BackgroundImageFix" result="effect1_dropShadow"/>
<feBlend mode="normal" in="SourceGraphic" in2="effect1_dropShadow" result="shape"/>
</filter>
<filter id="filter14_d" x="400.413" y="123.528" width="35.5431" height="18.64" filterUnits="userSpaceOnUse" color-interpolation-filters="sRGB">
<feFlood flood-opacity="0" result="BackgroundImageFix"/>
<feColorMatrix in="SourceAlpha" type="matrix" values="0 0 0 0 0 0 0 0 0 0 0 0 0 0 0 0 0 0 127 0"/>
<feOffset dy="4"/>
<feGaussianBlur stdDeviation="2"/>
<feColorMatrix type="matrix" values="0 0 0 0 0 0 0 0 0 0 0 0 0 0 0 0 0 0 0.25 0"/>
<feBlend mode="normal" in2="BackgroundImageFix" result="effect1_dropShadow"/>
<feBlend mode="normal" in="SourceGraphic" in2="effect1_dropShadow" result="shape"/>
</filter>
<filter id="filter15_d" x="516.845" y="123.458" width="35.4022" height="18.71" filterUnits="userSpaceOnUse" color-interpolation-filters="sRGB">
<feFlood flood-opacity="0" result="BackgroundImageFix"/>
<feColorMatrix in="SourceAlpha" type="matrix" values="0 0 0 0 0 0 0 0 0 0 0 0 0 0 0 0 0 0 127 0"/>
<feOffset dy="4"/>
<feGaussianBlur stdDeviation="2"/>
<feColorMatrix type="matrix" values="0 0 0 0 0 0 0 0 0 0 0 0 0 0 0 0 0 0 0.25 0"/>
<feBlend mode="normal" in2="BackgroundImageFix" result="effect1_dropShadow"/>
<feBlend mode="normal" in="SourceGraphic" in2="effect1_dropShadow" result="shape"/>
</filter>
</defs>
</svg>
