<svg width="81" height="49" viewBox="0 0 81 49" fill="none" xmlns="http://www.w3.org/2000/svg">
<path d="M27.7469 31.3368C27.7469 37.1881 23.0258 41.9267 17.2052 41.9267C11.3846 41.9267 6.66357 37.1881 6.66357 31.3368C6.66357 25.4855 11.3846 20.7469 17.2052 20.7469C23.0258 20.7469 27.7469 25.4855 27.7469 31.3368Z" stroke="#A9AFBE"/>
<path d="M13.0229 31.3767V24.8926L18.6128 28.1346L24.2026 31.3767L18.6128 34.6187L13.0229 37.8608V31.3767Z" fill="#FD0100"/>
<path d="M30.6565 32.3807L30.6565 32.3807L30.6563 32.3828C30.6478 32.4871 30.6389 32.5966 30.6281 32.705C30.6066 32.9207 30.5798 33.1345 30.5476 33.3481C30.5351 33.4363 30.5207 33.5285 30.5061 33.6128M30.6565 32.3807L30.1254 29.9939L30.6228 29.9439C30.6228 29.9437 30.6228 29.9434 30.6228 29.9432C30.6012 29.7285 30.5744 29.5186 30.5443 29.3106L30.5441 29.3093C30.4401 28.6033 30.2788 27.9067 30.0638 27.2267L30.0638 27.2265C29.3724 25.0425 28.14 23.0705 26.4809 21.496C25.9128 20.9541 25.2993 20.4617 24.6438 20.0279C24.4774 19.9141 24.3094 19.809 24.1432 19.7095C23.55 19.3496 22.929 19.0387 22.2893 18.7766C22.1002 18.6974 21.91 18.6266 21.7245 18.5609L21.7246 18.5609L21.7174 18.5584C21.6834 18.547 21.6491 18.5354 21.6143 18.5236C21.3775 18.4435 21.1236 18.3576 20.8642 18.2856C13.8623 16.3117 6.56771 20.2705 4.3701 27.2267L4.37007 27.2268C2.12071 34.3516 6.04561 41.9629 13.1437 44.2235C20.2425 46.4843 27.821 42.538 30.0708 35.4121L30.0708 35.4121L30.0733 35.4039C30.0808 35.3785 30.0913 35.3448 30.1027 35.3081C30.1208 35.2499 30.1413 35.184 30.1565 35.1307C30.1852 35.0367 30.2121 34.9412 30.2372 34.8443C30.2649 34.7455 30.2885 34.6486 30.3104 34.5574C30.3363 34.4569 30.3582 34.3577 30.3781 34.2677L30.3789 34.2641C30.4186 34.0847 30.4753 33.7944 30.5061 33.6128M30.6565 32.3807L30.6568 32.3761C30.6817 32.0319 30.6962 31.6809 30.6926 31.3153L30.6565 32.3807ZM30.5061 33.6128C30.5061 33.6126 30.5062 33.6124 30.5062 33.6122L30.0132 33.5288L30.5059 33.6141C30.506 33.6136 30.506 33.6132 30.5061 33.6128ZM78.2268 15.9087L78.2279 15.9081C78.3707 15.8246 78.5331 15.7802 78.7 15.779C79.2249 15.7758 79.6579 16.2021 79.6613 16.736L79.7579 31.3974L79.7579 31.4025L79.7061 46.0793V46.0811C79.7061 46.2449 79.6626 46.4082 79.5795 46.5556C79.3168 47.0158 78.7346 47.1738 78.2796 46.9125L78.2786 46.9119L65.5721 39.655L65.572 39.6549L61.5385 37.3504L60.7904 36.923V37.7845V44.1594C60.7904 46.2489 59.1041 47.9394 57.029 47.9394H17.2118H17.2115C9.22425 47.9445 2.37943 42.1971 0.970762 34.2953C-0.633961 25.2876 5.3347 16.6837 14.2966 15.0728L14.2991 15.0724C14.7802 14.9833 15.2776 14.9184 15.7816 14.8762H20.7986H21.2986V14.3762V9.39197H26.4681V14.3762V14.8762H26.9681H56.9566H56.9583C59.073 14.8762 60.7904 16.598 60.7904 18.7273V25.2148V26.09L61.5443 25.6456L65.4599 23.3372L65.4624 23.3358L78.2268 15.9087Z" stroke="#A9AFBE"/>
<path d="M33.7737 6.45509L33.6539 6.13202L33.3093 6.129L21.3962 6.02451C21.6299 4.50698 22.9348 3.34747 24.5083 3.34457H24.5083H24.5083H24.5083H24.5083H24.5083H24.5083H24.5083H24.5083H24.5084H24.5084H24.5084H24.5084H24.5084H24.5084H24.5084H24.5084H24.5084H24.5084H24.5085H24.5085H24.5085H24.5085H24.5085H24.5085H24.5085H24.5085H24.5085H24.5085H24.5086H24.5086H24.5086H24.5086H24.5086H24.5086H24.5086H24.5086H24.5086H24.5087H24.5087H24.5087H24.5087H24.5087H24.5087H24.5087H24.5087H24.5087H24.5087H24.5088H24.5088H24.5088H24.5088H24.5088H24.5088H24.5088H24.5088H24.5088H24.5088H24.5089H24.5089H24.5089H24.5089H24.5089H24.5089H24.5089H24.5089H24.5089H24.5089H24.509H24.509H24.509H24.509H24.509H24.509H24.509H24.509H24.509H24.509H24.5091H24.5091H24.5091H24.5091H24.5091H24.5091H24.5091H24.5091H24.5091H24.5091H24.5092H24.5092H24.5092H24.5092H24.5092H24.5092H24.5092H24.5092H24.5092H24.5092H24.5093H24.5093H24.5093H24.5093H24.5093H24.5093H24.5093H24.5093H24.5093H24.5093H24.5094H24.5094H24.5094H24.5094H24.5094H24.5094H24.5094H24.5094H24.5094H24.5094H24.5095H24.5095H24.5095H24.5095H24.5095H24.5095H24.5095H24.5095H24.5095H24.5096H24.5096H24.5096H24.5096H24.5096H24.5096H24.5096H24.5096H24.5096H24.5096H24.5097H24.5097H24.5097H24.5097H24.5097H24.5097H24.5097H24.5097H24.5097H24.5097H24.5098H24.5098H24.5098H24.5098H24.5098H24.5098H24.5098H24.5098H24.5098H24.5098H24.5099H24.5099H24.5099H24.5099H24.5099H24.5099H24.5099H24.5099H24.5099H24.5099H24.51H24.51H24.51H24.51H24.51H24.51H24.51H24.51H24.51H24.51H24.5101H24.5101H24.5101H24.5101H24.5101H24.5101H24.5101H24.5101H24.5101H24.5101H24.5102H24.5102H24.5102H24.5102H24.5102H24.5102H24.5102H24.5102H24.5102H24.5102H24.5103H24.5103H24.5103H24.5103H24.5103H24.5103H24.5103H24.5103H24.5103H24.5103H24.5104H24.5104H24.5104H24.5104H24.5104H24.5104H24.5104H24.5104H24.5104H24.5105H24.5105H24.5105H24.5105H24.5105H24.5105H24.5105H24.5105H24.5105H24.5105H24.5106H24.5106H24.5106H24.5106H24.5106H24.5106H24.5106H24.5106H24.5106H24.5106H24.5107H24.5107H24.5107H24.5107H24.5107H24.5107H24.5107H24.5107H24.5107H24.5107H24.5108H24.5108H24.5108H24.5108H24.5108H24.5108H24.5108H24.5108H24.5108H24.5108H24.5109H24.5109H24.5109H24.5109H24.5109H24.5109H24.5109H24.5109H24.5109H24.5109H24.511H24.511H24.511H24.511H24.511H24.511H24.511H24.511H24.511H24.511H24.5111H24.5111H24.5111H24.5111H24.5111H24.5111H24.5111H24.5111H24.5111H24.5111H24.5112H24.5112H24.5112H24.5112H24.5112H24.5112H24.5112H24.5112H24.5112H24.5112H24.5113H24.5113H24.5113H24.5113H24.5113H24.5113H24.5113H24.5113H24.5113H24.5113H24.5114H24.5114H24.5114H24.5114H24.5114H24.5114H24.5114H24.5114H24.5114H24.5115H24.5115H24.5115H24.5115H24.5115H24.5115H24.5115H24.5115H24.5115H24.5115H24.5116H24.5116H24.5116H24.5116H24.5116H24.5116H24.5116H24.5116H24.5116H24.5116H24.5117H24.5117H24.5117H24.5117H24.5117H24.5117H24.5117H24.5117H24.5117H24.5117H24.5118H24.5118H24.5118H24.5118H24.5118H24.5118H24.5118H24.5118H24.5118H24.5118H24.5119H24.5119H24.5119H24.5119H24.5119H24.5119H24.5119H24.5119H24.5119H24.5119H24.512H24.512H24.512H24.512H24.512H24.512H24.512H24.512H24.512H24.512H24.5121H24.5121H24.5121H24.5121H24.5121H24.5121H24.5121H24.5121H24.5121H24.5121H24.5122H24.5122H24.5122H24.5122H24.5122H24.5122H24.5122H24.5122H24.5122H24.5122H24.5123H24.5123H24.5123H24.5123H24.5123H24.5123H24.5123H24.5123H24.5123H24.5124H24.5124H24.5124H24.5124H24.5124H24.5124H24.5124H24.5124H24.5124H24.5124H24.5125H24.5125H24.5125H24.5125H24.5125H24.5125H24.5125H24.5125H24.5125H24.5125H24.5126H24.5126H24.5126H24.5126H24.5126H24.5126H24.5126H24.5126H24.5126H24.5126H24.5127H24.5127H24.5127H24.5127H24.5127H24.5127H24.5127H24.5127H24.5127H24.5127H24.5128H24.5128H24.5128H24.5128H24.5128H24.5128H24.5128H24.5128H24.5128H24.5128H24.5129H24.5129H24.5129H24.5129H24.5129H24.5129H24.5129H24.5129H24.5129H24.5129H24.513H24.513H24.513H24.513H33.3239H33.6663L33.7901 3.02535C34.2782 1.76668 35.4858 0.939458 36.8279 0.939458L57.3878 0.939459L57.3886 0.939457C59.3534 0.936421 60.9512 2.53222 60.9542 4.51049V4.51058V4.51062V4.51067V4.51071V4.51075V4.5108V4.51084V4.51089V4.51093V4.51097V4.51102V4.51106V4.51111V4.51115V4.5112V4.51124V4.51129V4.51134V4.51138V4.51143V4.51147V4.51152V4.51156V4.51161V4.51166V4.5117V4.51175V4.5118V4.51184V4.51189V4.51194V4.51198V4.51203V4.51208V4.51212V4.51217V4.51222V4.51227V4.51231V4.51236V4.51241V4.51246V4.51251V4.51255V4.5126V4.51265V4.5127V4.51275V4.51279V4.51284V4.51289V4.51294V4.51299V4.51304V4.51309V4.51314V4.51319V4.51323V4.51328V4.51333V4.51338V4.51343V4.51348V4.51353V4.51358V4.51363V4.51368V4.51373V4.51378V4.51383V4.51388V4.51393V4.51398V4.51403V4.51408V4.51413V4.51418V4.51423V4.51428V4.51433V4.51438V4.51443V4.51448V4.51453V4.51458V4.51463V4.51468V4.51473V4.51478V4.51483V4.51488V4.51493V4.51498V4.51503V4.51508V4.51513V4.51519V4.51524V4.51529V4.51534V4.51539V4.51544V4.51549V4.51554V4.51559V4.51564V4.51569V4.51574V4.51579V4.51584V4.5159V4.51595V4.516V4.51605V4.5161V4.51615V4.5162V4.51625V4.5163V4.51635V4.5164V4.51645V4.5165V4.51655V4.51661V4.51666V4.51671V4.51676V4.51681V4.51686V4.51691V4.51696V4.51701V4.51706V4.51711V4.51716V4.51721V4.51726V4.51731V4.51736V4.51741V4.51746V4.51751V4.51756V4.51761V4.51766V4.51771V4.51776V4.51781V4.51786V4.51791V4.51796V4.51801V4.51806V4.51811V4.51816V4.51821V4.51826V4.51831V4.51836V4.51841V4.51846V4.5185V4.51855V4.5186V4.51865V4.5187V4.51875V4.5188V4.51885V4.51889V4.51894V4.51899V4.51904V4.51909V4.51914V4.51918V4.51923V4.51928V4.51933V4.51938V4.51942V4.51947V4.51952V4.51957V4.51961V4.51966V4.51971V4.51975V4.5198V4.51985V4.51989V4.51994V4.51999V4.52003V4.52008V4.52013V4.52017V4.52022V4.52026V4.52031V4.52035V4.5204V4.52045V4.52049V4.52054V4.52058V4.52063V4.52067V4.52071V4.52076V4.5208V4.52085V4.52089V4.52094V4.52098V4.52102V4.52107V4.52111V4.52115V4.5212V4.52124V4.52128V4.52133V4.52137V4.52141V4.52145V4.5215V4.52154V4.52158C60.9527 6.79166 59.1244 8.62631 56.8695 8.6294H36.8888C35.5008 8.62789 34.2585 7.76222 33.7737 6.45509Z" stroke="#A9AFBE"/>
<path d="M34.4902 35.953V28.3027H37.7268C38.5411 28.3027 39.1329 28.3721 39.5021 28.5089C39.8713 28.6458 40.1663 28.8902 40.3889 29.2419C40.6097 29.5937 40.7219 29.9957 40.7219 30.4479C40.7219 31.0215 40.5545 31.4963 40.2181 31.8706C39.8817 32.2448 39.3796 32.4805 38.7119 32.5775C39.0449 32.7716 39.3192 32.9865 39.5349 33.2187C39.7505 33.4526 40.0438 33.8667 40.4113 34.4611L41.3412 35.953H39.5021L38.3893 34.2878C37.9942 33.6934 37.7234 33.3174 37.5784 33.1632C37.4335 33.009 37.2783 32.9016 37.1161 32.8444C36.9539 32.7872 36.6951 32.7577 36.3414 32.7577H36.0292V35.9513H34.4902V35.953ZM36.0274 31.5379H37.1661C37.9045 31.5379 38.3652 31.5067 38.548 31.4443C38.7309 31.3819 38.8758 31.2745 38.9794 31.1203C39.0829 30.9678 39.1346 30.7754 39.1346 30.5467C39.1346 30.2885 39.0656 30.0806 38.9293 29.9229C38.793 29.7652 38.5998 29.6647 38.3496 29.6231C38.2254 29.6058 37.851 29.5971 37.2265 29.5971H36.0257V31.5379H36.0274Z" fill="#FD0100"/>
<path d="M42.1711 35.953V28.3027H47.8196V29.5971H43.7083V31.2935H47.5332V32.5827H43.7083V34.6655H47.9646V35.9547H42.1711V35.953Z" fill="#FD0100"/>
<path d="M54.1428 33.1407L55.6334 33.6155C55.4039 34.4507 55.0244 35.071 54.493 35.4765C53.9616 35.882 53.287 36.0847 52.4693 36.0847C51.4583 36.0847 50.6267 35.7381 49.9745 35.0433C49.3224 34.3485 48.998 33.4006 48.998 32.1963C48.998 30.9227 49.3258 29.9333 49.9797 29.2298C50.6336 28.5245 51.4962 28.1728 52.5624 28.1728C53.4941 28.1728 54.2515 28.45 54.8329 29.0028C55.1796 29.3303 55.4384 29.7999 55.6127 30.4116L54.0893 30.7772C53.9996 30.3804 53.8115 30.0667 53.5251 29.838C53.2387 29.6075 52.892 29.4932 52.4831 29.4932C51.9189 29.4932 51.46 29.6959 51.108 30.1031C50.7561 30.5103 50.5801 31.1688 50.5801 32.082C50.5801 33.0489 50.7526 33.7385 51.0994 34.1492C51.4462 34.5599 51.8965 34.7643 52.4503 34.7643C52.8592 34.7643 53.2111 34.6344 53.5061 34.3727C53.8029 34.1111 54.0151 33.7004 54.1428 33.1407Z" fill="#FD0100"/>
</svg>
