<svg width="113" height="96" viewBox="0 0 113 96" fill="none" xmlns="http://www.w3.org/2000/svg">
<path d="M47.7143 96C74.0505 96 95.4003 93.7089 95.4003 90.8827C95.4003 88.0564 74.0505 85.7653 47.7143 85.7653C21.3781 85.7653 0.0283203 88.0564 0.0283203 90.8827C0.0283203 93.7089 21.3781 96 47.7143 96Z" fill="#C8CEFF"/>
<g opacity="0.47">
<g opacity="0.47">
<path opacity="0.47" d="M28.3108 43.8315L35.6856 4.74065C35.6856 4.74065 36.8313 0.547273 42.8457 1.68446L63.3951 5.1671L68.9799 12.6299C69.7675 13.696 70.1255 15.0464 69.8391 16.3258L62.4643 56.4827H22.8691L28.3108 43.8315Z" fill="#FEFFFF"/>
</g>
</g>
<path d="M38.5945 30.1817L36.9789 40.5052L58.1327 43.7673L59.7483 33.4437L38.5945 30.1817Z" fill="#F3425F"/>
<path d="M61.6766 19.453L41.1273 16.3258C40.4113 16.1836 39.9101 15.544 40.0533 14.8332L40.1965 13.8382C40.3397 13.1274 40.9841 12.6299 41.7001 12.7721L62.2494 15.8993C62.9654 16.0415 63.4667 16.6811 63.3235 17.3919L63.1802 18.3869C63.037 19.0977 62.3926 19.5952 61.6766 19.453Z" fill="#1878F3"/>
<path d="M60.8175 24.5703L40.2681 21.4431C39.5521 21.3009 39.0509 20.6613 39.1941 19.9505L39.3373 18.9555C39.4805 18.2447 40.1249 17.7472 40.8409 17.8894L61.3903 21.0166C62.1063 21.1588 62.6075 21.7984 62.4643 22.5092L62.3211 23.5042C62.1779 24.215 61.5335 24.7125 60.8175 24.5703Z" fill="#1878F3"/>
<path d="M66.4023 41.6282L64.6839 41.3439L68.9083 15.2596C68.9799 14.8332 68.9083 14.4067 68.6219 14.0514L63.9679 7.22824C63.5382 6.65965 62.9655 6.2332 62.2494 6.09106L41.1989 2.03982C39.5521 1.68445 38.1917 1.8266 37.2609 2.3952C36.1152 3.17701 35.8288 4.38527 35.8288 4.38527L30.3156 36.653L28.5972 36.3687L34.1104 4.0299C34.1104 3.95883 34.54 2.03982 36.2584 0.902636C37.6189 -0.0213291 39.4089 -0.234552 41.5569 0.262968L62.6074 4.3142C63.7531 4.52742 64.7555 5.16709 65.4715 6.16213L70.1255 12.9853C70.6267 13.696 70.7699 14.5489 70.6983 15.4018L66.4023 41.6282Z" fill="#1878F3"/>
<path d="M12.2722 85.0545L6.83057 50.2992C6.83057 50.2992 6.97377 44.5422 13.7042 44.2579H23.0123C23.0123 44.2579 26.2343 43.9736 28.0243 45.1819C28.5971 45.5373 28.9551 46.1769 29.0267 46.8166C29.0983 47.4563 29.6711 48.5224 32.9648 48.6645L48.2157 48.8067L46.0677 53.0711L21.1507 61.8133L13.7758 85.0545L12.9166 89.1058L12.2722 85.0545Z" fill="#F7B928"/>
<path d="M17.9288 66.8595L19.2176 60.6761C19.2176 60.6761 20.3632 53.0001 27.3085 53.0001H45.5666L48.717 46.8877C50.0775 44.2579 52.5835 42.3389 55.5191 41.8414C56.2351 41.6992 57.0943 41.6282 58.0251 41.6282H88.6702L80.1497 89.4612H13.418L17.9288 66.8595Z" fill="#C7CFFF"/>
<path d="M42.273 90.4562H11.9144L6.47272 52.5736C6.40112 52.1472 6.32952 51.7918 6.25792 51.3654C6.11471 50.5125 5.82831 48.3092 7.47512 46.3902C9.47994 44.1158 13.418 43.1208 19.2176 43.4761L19.146 45.1819C12.6304 44.8265 9.90954 46.248 8.83554 47.5274C7.76153 48.8067 7.83313 50.2282 7.97633 50.9389C8.04793 51.3654 8.19113 51.8629 8.19113 52.2893L13.418 88.6793H42.2014V90.4562H42.273Z" fill="#1878F3"/>
<path d="M80.5792 90.4562H63.1086V88.6794H79.1472L88.0256 41.5571L89.744 41.9125L80.5792 90.4562Z" fill="#1878F3"/>
<path d="M80.8657 40.8464H60.1016V42.5522H80.8657V40.8464Z" fill="#1878F3"/>
<path d="M17.4854 65.4606L12.5076 89.4064L14.1906 89.7512L19.1684 65.8053L17.4854 65.4606Z" fill="#5B639C"/>
<path d="M77.1425 85.0546H56.1636L57.9536 73.043H78.9325L77.1425 85.0546Z" fill="#EEF4FE"/>
<path d="M78.9126 13.5142L78.2136 14.2275L82.8327 18.6879L83.5317 17.9746L78.9126 13.5142Z" fill="#45BD63"/>
<path d="M82.7977 13.4696L78.3043 18.0547L79.0228 18.7486L83.5162 14.1634L82.7977 13.4696Z" fill="#45BD63"/>
<path d="M108.38 62.9299L107.681 63.6431L112.3 68.1035L112.999 67.3903L108.38 62.9299Z" fill="#45BD63"/>
<path d="M112.206 62.8319L107.713 67.417L108.431 68.1108L112.925 63.5257L112.206 62.8319Z" fill="#45BD63"/>
<path d="M0.698733 27.5787L-0.000246048 28.2919L4.61885 32.7523L5.31783 32.0391L0.698733 27.5787Z" fill="#45BD63"/>
<path d="M4.57427 27.4773L0.0808334 32.0624L0.79936 32.7563L5.2928 28.1711L4.57427 27.4773Z" fill="#45BD63"/>
</svg>
