<svg width="122" height="98" viewBox="0 0 122 98" fill="none" xmlns="http://www.w3.org/2000/svg">
<path d="M63.653 97.9932C92.122 97.9932 115.201 96.3251 115.201 94.2675C115.201 92.2098 92.122 90.5417 63.653 90.5417C35.1841 90.5417 12.1055 92.2098 12.1055 94.2675C12.1055 96.3251 35.1841 97.9932 63.653 97.9932Z" fill="#C8CEFF"/>
<path d="M98.8073 92.2576H25.3224C22.9612 92.2576 21.0473 90.355 21.0369 87.9992L20.8115 44.8093L61.1079 74.9713C61.517 75.2792 62.0856 75.2792 62.4948 74.9713L102.548 44.8093V88.5215C102.552 90.5833 100.877 92.2542 98.8107 92.2576H98.8073Z" fill="#C8CEFF"/>
<path d="M53.5979 70.0833L61.2431 75.3796L68.8191 69.7097L101.748 91.5209L22.1152 91.4102L53.5979 70.0833Z" fill="#45BD63"/>
<path d="M20.8115 44.8093L60.2931 12.4091C61.1668 11.6861 62.4358 11.6861 63.3096 12.4091L102.548 44.8024L61.8048 75.4902L20.8115 44.8093Z" fill="#F7B928"/>
<path d="M89.7507 31.5185V54.4436L61.8012 75.4937L54.045 70.0902L33.7373 54.5439V22.0779C33.7373 20.4624 35.0479 19.1548 36.6671 19.1548H36.6706H76.8317C77.7228 19.1617 78.5792 19.5007 79.231 20.1061L88.655 28.9966C89.3485 29.6574 89.7437 30.5706 89.7507 31.5289V31.5185Z" fill="white"/>
<path d="M63.507 33.6875H38.7959V43.2768H63.507V33.6875Z" fill="#1878F3"/>
<path d="M83.8217 33.6875H67.6782V35.604H83.8217V33.6875Z" fill="#CCD0FA"/>
<path d="M83.8217 40.4816H67.6782V42.3981H83.8217V40.4816Z" fill="#CCD0FA"/>
<path d="M83.825 47.2758H38.7959V49.1922H83.825V47.2758Z" fill="#CCD0FA"/>
<path d="M83.825 53.7413H38.7959V55.6577H83.825V53.7413Z" fill="#CCD0FA"/>
<path d="M89.3765 29.9618H78.2813L78.2085 19.4592C78.583 19.6184 78.9262 19.8432 79.2209 20.12L88.6553 28.9966C88.9501 29.2734 89.1962 29.602 89.3765 29.9618Z" fill="#BBBBC3"/>
<path d="M46.2442 19.2482L46.5562 18.7915C46.1749 18.5286 45.79 18.2553 45.419 17.9786L45.0723 18.4179C45.4675 18.705 45.8524 18.9645 46.2442 19.2482Z" fill="#5B639C"/>
<path d="M48.0052 20.414L48.3034 19.9505L47.1245 19.179L46.8159 19.6391L48.0052 20.414Z" fill="#5B639C"/>
<path d="M49.801 21.521L50.0784 21.0401C49.6762 20.7979 49.2705 20.5627 48.8787 20.3102L48.584 20.7772C48.9897 21.0401 49.3849 21.2788 49.801 21.521Z" fill="#5B639C"/>
<path d="M51.6318 22.5761L51.8988 22.0952L50.6783 21.3999L50.3975 21.8773L51.6318 22.5761Z" fill="#5B639C"/>
<path d="M53.4904 23.5793L53.7435 23.0915L52.5057 22.4239L52.2388 22.9117L53.4904 23.5793Z" fill="#5B639C"/>
<path d="M55.3803 24.5237L55.6196 24.0256L54.361 23.3994L54.1113 23.8906L55.3803 24.5237Z" fill="#5B639C"/>
<path d="M57.2942 25.4127L57.5195 24.9076L56.2436 24.3161L56.0078 24.8177L57.2942 25.4127Z" fill="#5B639C"/>
<path d="M59.2393 26.2395L59.4473 25.731L58.154 25.1775L57.9321 25.686L59.2393 26.2395Z" fill="#5B639C"/>
<path d="M61.2087 27.004L61.3994 26.4886L60.0888 25.98L59.8877 26.492L61.2087 27.004Z" fill="#5B639C"/>
<path d="M63.2056 27.6959L63.379 27.1736L62.051 26.7169L61.8638 27.2358L63.2056 27.6959Z" fill="#5B639C"/>
<path d="M65.2268 28.3186L65.3794 27.7859L64.0341 27.3846L63.8677 27.9104L65.2268 28.3186Z" fill="#5B639C"/>
<path d="M67.2725 28.8583L67.4043 28.3255L66.0417 27.983L65.8926 28.5158L67.2725 28.8583Z" fill="#5B639C"/>
<path d="M69.3393 29.3218L69.4468 28.7787C68.9891 28.6853 68.5245 28.6126 68.0599 28.4881L67.9351 29.0278C68.4031 29.1523 68.8747 29.2249 69.3393 29.3218Z" fill="#5B639C"/>
<path d="M71.4193 29.6885L71.506 29.1419C71.0379 29.0865 70.5803 28.9966 70.1191 28.9032L70.0186 29.4463C70.4832 29.5466 70.9478 29.64 71.4193 29.6885Z" fill="#5B639C"/>
<path d="M73.521 29.9756L73.5765 29.4291C73.1118 29.3806 72.6507 29.3045 72.1896 29.2422L72.1133 29.7888C72.5814 29.8511 73.0494 29.9307 73.521 29.9756Z" fill="#5B639C"/>
<path d="M75.6325 30.1416L75.6637 29.5916L74.2629 29.4809L74.2144 30.0309L75.6325 30.1416Z" fill="#5B639C"/>
<path d="M77.7507 30.1867V29.6366L76.3465 29.6193L76.3257 30.1728L77.7507 30.1867Z" fill="#5B639C"/>
<path d="M79.8693 30.1209L79.8381 29.5709C79.37 29.5951 78.9054 29.6366 78.4512 29.6435V30.197C78.9227 30.1901 79.3943 30.1451 79.8693 30.1209Z" fill="#5B639C"/>
<path d="M81.9807 29.941L81.9148 29.391L81.2214 29.4879L80.521 29.5294L80.5661 30.0794L81.2769 30.0344L81.9807 29.941Z" fill="#5B639C"/>
<path d="M84.0822 29.6366L83.9816 29.0969C83.524 29.1869 83.0593 29.2284 82.5947 29.2976L82.671 29.8441C83.1426 29.775 83.6176 29.73 84.0822 29.6366Z" fill="#5B639C"/>
<path d="M86.1552 29.1799L86.0199 28.6437L84.6504 28.9482L84.7648 29.4878L86.1552 29.1799Z" fill="#5B639C"/>
<path d="M88.1909 28.5815L88.021 28.0557L86.6826 28.4742L86.8317 29.007L88.1909 28.5815Z" fill="#5B639C"/>
<path d="M90.1846 27.8585L89.98 27.3465C89.5535 27.5402 89.1167 27.7063 88.6729 27.8516L88.8566 28.3705C89.3108 28.2252 89.7546 28.0557 90.1846 27.8585Z" fill="#5B639C"/>
<path d="M92.1364 27.0248L91.8972 26.5266C91.4846 26.748 91.0373 26.8968 90.6108 27.0836L90.8293 27.5921C91.2627 27.4018 91.7169 27.2462 92.1364 27.0248Z" fill="#5B639C"/>
<path d="M94.0122 26.0319L93.7418 25.5511L92.5005 26.2049L92.7536 26.6961L94.0122 26.0319Z" fill="#5B639C"/>
<path d="M95.8154 24.9215L95.5137 24.4579L94.3418 25.2225L94.6226 25.6999L95.8154 24.9215Z" fill="#5B639C"/>
<path d="M97.5797 23.7176L97.233 23.2748C96.8724 23.5689 96.491 23.8422 96.0923 24.0843L96.4043 24.5375C96.8135 24.2919 97.2087 24.0186 97.5797 23.7176Z" fill="#5B639C"/>
<path d="M99.2233 22.4031L98.8662 21.9811L97.7671 22.8494L98.1069 23.2853L99.2233 22.4031Z" fill="#5B639C"/>
<path d="M100.79 20.9813L100.412 20.58L99.3965 21.5452L99.7605 21.9603L100.79 20.9813Z" fill="#5B639C"/>
<path d="M102.309 19.5042L101.911 19.1237C101.606 19.4696 101.242 19.7775 100.909 20.1061L101.297 20.5005C101.633 20.1684 102.001 19.8674 102.309 19.5042Z" fill="#5B639C"/>
<path d="M103.714 17.9232L103.297 17.5635L102.365 18.6117L102.77 18.9853L103.714 17.9232Z" fill="#5B639C"/>
<path d="M105.063 16.2974L104.626 15.9514C104.355 16.3319 104.064 16.6986 103.752 17.048L104.175 17.394C104.49 17.0446 104.789 16.6779 105.063 16.2974Z" fill="#5B639C"/>
<path d="M106.335 14.6092L105.884 14.284L105.038 15.4083L105.478 15.7404L106.335 14.6092Z" fill="#5B639C"/>
<path d="M107.524 12.8622L107.063 12.5613C106.807 12.9522 106.564 13.3535 106.297 13.7375L106.751 14.0523C107.022 13.6648 107.264 13.2601 107.524 12.8622Z" fill="#5B639C"/>
<path d="M108.662 11.0841L108.19 10.8005L107.431 11.9801L107.899 12.2811L108.662 11.0841Z" fill="#5B639C"/>
<path d="M111.449 8.53116L110.78 12.1185C111.061 12.1531 111.341 12.0562 111.539 11.8521L113.456 10.4027L116.736 13.4296C117.35 13.8689 117.836 13.7271 118.103 12.973L121.712 2.249C122.031 1.3046 121.514 0.865259 120.849 1.02439L106.425 4.72589C105.44 4.98188 105.385 5.5077 106.134 5.83288L109.542 7.33423L118.335 3.14843C118.751 2.93741 119.084 3.11729 118.768 3.34215L111.449 8.53116Z" fill="#F3425F"/>
<path d="M98.9322 92.6486H25.2081C22.6423 92.6382 20.555 90.5834 20.51 88.0234L20.1875 62.9432L21.4322 62.9259L21.7547 88.0096C21.7894 89.8949 23.3323 91.4067 25.2219 91.4067H98.9322C100.572 91.4067 101.904 90.0783 101.907 88.442V84.187H103.152V88.4524C103.141 90.7736 101.259 92.6486 98.9322 92.6486Z" fill="#1878F3"/>
<path d="M34.3619 33.3969H33.1172V22.4965C33.1172 20.3171 34.6254 18.546 36.477 18.546H44.944V19.7879H36.477C35.312 19.7879 34.3619 21.0021 34.3619 22.4965V33.3969Z" fill="#1878F3"/>
<path d="M107.373 23.0795L106.767 23.7019L110.8 27.6169L111.407 26.9945L107.373 23.0795Z" fill="#45BD63"/>
<path d="M110.734 23.0333L106.81 27.0577L107.433 27.6632L111.357 23.6387L110.734 23.0333Z" fill="#45BD63"/>
<path d="M1.41642 44.9985L0.80957 45.6208L4.84325 49.5359L5.4501 48.9135L1.41642 44.9985Z" fill="#45BD63"/>
<path d="M4.78137 44.949L0.857422 48.9735L1.48124 49.579L5.40518 45.5545L4.78137 44.949Z" fill="#45BD63"/>
<path d="M109.691 79.8662L113.723 83.7787L113.116 84.4014L109.084 80.4854" fill="#45BD63"/>
<path d="M109.129 83.8411L113.054 79.8179L113.678 80.4233L109.753 84.4465" fill="#45BD63"/>
</svg>
