<svg width="133" height="96" viewBox="0 0 133 96" fill="none" xmlns="http://www.w3.org/2000/svg">
<path d="M67.3164 96C93.0762 96 113.959 93.7584 113.959 90.9932C113.959 88.2281 93.0762 85.9865 67.3164 85.9865C41.5567 85.9865 20.6743 88.2281 20.6743 90.9932C20.6743 93.7584 41.5567 96 67.3164 96Z" fill="#C8CEFF"/>
<path d="M104.179 88.4898H30.4541C27.9237 88.4898 25.8719 86.46 25.8719 83.9567V17.5155C25.8719 15.0121 27.9237 12.9824 30.4541 12.9824H104.11C106.641 12.9824 108.693 15.0121 108.693 17.5155V83.9567C108.693 86.46 106.641 88.4898 104.179 88.4898Z" fill="white"/>
<path d="M109.855 64.9445H108.214V18.6657C108.214 15.9594 105.957 13.7266 103.221 13.7266H30.3857C28.1972 13.7266 26.4874 15.4858 26.4874 17.5832V18.5981H24.8461V17.5832C24.8461 14.5385 27.3765 12.0352 30.4541 12.0352H103.221C106.914 12.0352 109.924 15.0122 109.924 18.6657V64.9445H109.855Z" fill="#1878F3"/>
<path d="M103.837 89.5047H31.0696C27.5817 89.5047 24.7777 86.7307 24.7777 83.2801V46.0676H26.4191V83.2801C26.4191 85.7835 28.4708 87.8809 31.0696 87.8809H103.837C106.231 87.8809 108.145 85.9864 108.145 83.6184V82.5358H109.787V83.6184C109.855 86.866 107.12 89.5047 103.837 89.5047Z" fill="#1878F3"/>
<path d="M104.521 18.3951H30.1122V83.1447H104.521V18.3951Z" fill="#C8CDFD"/>
<path d="M82.9779 36.5954C86.264 36.5954 88.9278 33.96 88.9278 30.709C88.9278 27.4581 86.264 24.8227 82.9779 24.8227C79.6918 24.8227 77.028 27.4581 77.028 30.709C77.028 33.96 79.6918 36.5954 82.9779 36.5954Z" fill="white"/>
<path d="M61.64 32.1976V32.8741H37.9086L37.8402 31.8593C38.2506 29.4912 40.0971 27.5967 42.4908 27.1231C43.1747 24.2815 45.7735 22.184 48.8511 22.184C52.0654 22.184 54.7326 24.4844 55.2798 27.5291C55.3481 27.5291 55.3481 27.5291 55.4165 27.5291C58.3573 27.5291 60.8877 29.4912 61.64 32.1976Z" fill="white"/>
<path d="M56.6271 41.3586L35.6928 62.5223L37.4504 64.9174L81.822 62.9756L59.6773 41.318C58.8361 40.4925 57.4614 40.4925 56.6271 41.3586Z" fill="#45BD63"/>
<path d="M75.7626 46.4059L54.5343 64.0514L56.8733 64.958H99.07L78.806 46.3992C78.0127 45.5331 76.597 45.5331 75.7626 46.4059Z" fill="#288E3E"/>
<path d="M127.592 36.4371L126.925 37.116L131.337 41.3621L132.004 40.6831L127.592 36.4371Z" fill="#45BD63"/>
<path d="M131.244 36.3418L126.952 40.7066L127.638 41.3671L131.93 37.0023L131.244 36.3418Z" fill="#45BD63"/>
<path d="M11.7985 1.10478L11.1309 1.78375L15.5429 6.02983L16.2105 5.35086L11.7985 1.10478Z" fill="#45BD63"/>
<path d="M15.4854 0.996695L11.1935 5.36151L11.8798 6.02201L16.1717 1.6572L15.4854 0.996695Z" fill="#45BD63"/>
<path d="M0.666663 62.4573L-0.000976562 63.1363L4.41101 67.3824L5.07865 66.7034L0.666663 62.4573Z" fill="#45BD63"/>
<path d="M4.39106 62.365L0.0990906 66.7298L0.785401 67.3903L5.07737 63.0255L4.39106 62.365Z" fill="#45BD63"/>
<path d="M104.521 62.9148H30.0439V83.6185H104.521V62.9148Z" fill="white"/>
<path d="M82.978 67.3802H30.1123V71.0609H82.978V67.3802Z" fill="#F3425F"/>
<path d="M74.012 75.479H30.1123V79.1596H74.012V75.479Z" fill="#F3425F"/>
</svg>
