<svg width="130" height="98" viewBox="0 0 130 98" fill="none" xmlns="http://www.w3.org/2000/svg">
<path d="M64.4465 97.5114C92.5952 97.5114 115.414 95.191 115.414 92.3286C115.414 89.4662 92.5952 87.1458 64.4465 87.1458C36.2977 87.1458 13.4787 89.4662 13.4787 92.3286C13.4787 95.191 36.2977 97.5114 64.4465 97.5114Z" fill="#C8CEFF"/>
<path d="M107.617 89.7017H18.7953C15.2509 89.7017 12.3445 86.7908 12.3445 83.2409V29.2118C12.3445 25.6619 15.2509 22.751 18.7953 22.751H107.617C111.161 22.751 114.068 25.6619 114.068 29.2118V83.2409C114.068 86.7908 111.161 89.7017 107.617 89.7017Z" fill="white"/>
<path d="M109.247 90.5536H18.2281C14.542 90.5536 11.4938 87.5007 11.4938 83.8089V28.9987C11.4938 25.0939 14.6129 21.97 18.5117 21.97H28.4359V23.6739H18.5117C15.6053 23.6739 13.266 26.0168 13.266 28.9277V83.7379C13.266 86.5068 15.5344 88.7787 18.299 88.7787H109.318V90.5536H109.247Z" fill="#1878F3"/>
<path d="M114.918 68.7574H113.217V28.9988C113.217 26.0879 110.878 23.745 107.971 23.745H55.5856V22.041H107.9C111.799 22.041 114.918 25.1649 114.918 29.0698V68.7574Z" fill="#1878F3"/>
<path d="M63.2415 73.0883C72.4417 73.0883 79.8999 65.6184 79.8999 56.4039C79.8999 47.1893 72.4417 39.7194 63.2415 39.7194C54.0413 39.7194 46.583 47.1893 46.583 56.4039C46.583 65.6184 54.0413 73.0883 63.2415 73.0883Z" fill="#F3425F"/>
<path d="M71.8897 55.6229L58.492 47.5292C57.9958 47.2452 57.3578 47.6001 57.3578 48.1681V64.2846C57.3578 64.8526 57.9958 65.2076 58.492 64.9236L71.8897 56.8298C72.3859 56.6168 72.3859 55.9069 71.8897 55.6229Z" fill="white"/>
<path d="M27.089 27.4368H17.8028V32.9746H27.089V27.4368Z" fill="#F7B928"/>
<path d="M43.5348 27.4368H34.2486V32.9746H43.5348V27.4368Z" fill="#F7B928"/>
<path d="M60.1225 27.4368H50.8363V32.9746H60.1225V27.4368Z" fill="#F7B928"/>
<path d="M76.2847 27.4368H66.9985V32.9746H76.2847V27.4368Z" fill="#F7B928"/>
<path d="M92.0217 27.4368H82.7355V32.9746H92.0217V27.4368Z" fill="#F7B928"/>
<path d="M108.68 27.4368H99.3939V32.9746H108.68V27.4368Z" fill="#F7B928"/>
<path d="M27.089 79.1941H17.8028V84.7319H27.089V79.1941Z" fill="#F7B928"/>
<path d="M43.5348 79.1941H34.2486V84.7319H43.5348V79.1941Z" fill="#F7B928"/>
<path d="M60.1225 79.1941H50.8363V84.7319H60.1225V79.1941Z" fill="#F7B928"/>
<path d="M76.2847 79.1941H66.9985V84.7319H76.2847V79.1941Z" fill="#F7B928"/>
<path d="M92.0217 79.1941H82.7355V84.7319H92.0217V79.1941Z" fill="#F7B928"/>
<path d="M108.68 79.1941H99.3939V84.7319H108.68V79.1941Z" fill="#F7B928"/>
<path d="M122.273 0.0668782L121.581 0.779358L126.154 5.23495L126.846 4.52248L122.273 0.0668782Z" fill="#45BD63"/>
<path d="M126.101 0.00146831L121.653 4.58167L122.364 5.27476L126.813 0.694561L126.101 0.00146831Z" fill="#45BD63"/>
<path d="M1.60876 25.1528L0.916748 25.8652L5.48982 30.3208L6.18183 29.6084L1.60876 25.1528Z" fill="#45BD63"/>
<path d="M5.39687 25.0857L0.948212 29.6659L1.65958 30.359L6.10824 25.7788L5.39687 25.0857Z" fill="#45BD63"/>
<path d="M124.927 64.9588L124.235 65.6713L128.808 70.1269L129.5 69.4144L124.927 64.9588Z" fill="#45BD63"/>
<path d="M128.785 64.9424L124.337 69.5226L125.048 70.2157L129.497 65.6355L128.785 64.9424Z" fill="#45BD63"/>
</svg>
